<svg xmlns="http://www.w3.org/2000/svg" fill="none" viewBox="0 0 270 30"><g fill="#262321" clip-path="url(#a)"><path d="M191.841.27c.34 9.663.315 19.305 0 28.96h3.466c-.257-9.67-.253-19.311.012-28.96H191.841ZM179.552 28.204c-.69.448-1.49.728-2.24 1.084-.004.016-.009.032-.012.05 1.061-.2 2.152-.297 3.177-.614 3.108-.959 5.198-2.901 5.604-6.28.225-1.872-.239-3.598-1.453-5.056-1.993-2.39-4.731-2.993-7.666-3.074 1.641.318 3.009 1.1 4.038 2.422 1.436 1.841 1.919 3.96 1.652 6.238-.256 2.181-1.221 4.01-3.103 5.23h.003ZM203.445 20.81c.634 1.289 1.225 2.601 1.865 3.887.632 1.271 1.391 2.459 2.495 3.388.589.495 1.242.873 1.891 1.05-.457-1.505-.886-3.045-1.396-4.56-.428-1.278-.845-2.58-1.451-3.778-1.483-2.935-4.06-4.119-7.124-4.228.52.366 1.13.712 1.641 1.168.944.844 1.527 1.955 2.077 3.074l.002-.001ZM153.542.583h-7.143c2.601.562 5.056 1.184 7.143 2.803V.583ZM177.326 13.102c.049.003.1.014.148.01.347-.026.697-.04 1.043-.085 1.933-.252 3.678-.902 5.063-2.349 1.833-1.915 2.148-5.103.635-7.277-1.719-2.468-4.334-2.976-7.082-3.137 3.268.685 4.704 3.137 4.945 5.78.126 1.402-.116 2.762-.789 4.014-.861 1.602-2.206 2.586-3.963 3.044ZM158.475 13.38c.06-1.128.123-2.293.225-3.238.084-.771.193-1.173.359-1.781.044-.162.091-.337.142-.534l.091-.355h-2.307l.061.336c.382 2.062.529 4.208.644 6.32-2.113-.115-4.26-.262-6.323-.642l-.336-.061v2.308l.355-.091c.197-.051.371-.099.533-.143.609-.165 1.01-.274 1.783-.358.947-.102 2.114-.165 3.244-.225l.749-.04c-.114 2.152-.262 4.344-.65 6.446l-.062.336h2.308l-.092-.355a44.512 44.512 0 0 0-.142-.534c-.165-.608-.274-1.01-.359-1.783-.102-.945-.165-2.11-.225-3.237a74.629 74.629 0 0 0-.049-.882c.288.016.58.032.877.05 1.13.059 2.299.122 3.244.224.773.084 1.176.193 1.786.358.161.044.335.092.532.143l.355.091v-2.308l-.336.061c-2.105.389-4.298.534-6.451.649l.041-.754.003-.002ZM170.209 29.235h3.471a546.285 546.285 0 0 1 .012-28.964h-3.508c.35 9.662.376 19.304.023 28.964h.002ZM201.322 14.374c-.538.304-1.133.507-1.701.755.39.004.786-.024 1.176-.08 2.114-.312 4.005-1.08 5.532-2.635 2.604-2.653 2.567-7.162-.125-9.71C204.259.862 201.823.36 199.24.271c2.464.5 4.108 1.978 5.033 4.278a8.6 8.6 0 0 1 .543 4.403c-.315 2.356-1.39 4.228-3.496 5.419l.002.002ZM215.599 29.244c.058-1.032.001-2.042.189-3.005.445-2.285 1.011-4.548 1.513-6.82.073-.329 1.557-5.037 2.227-7.155-1.146 2.85-2.241 5.714-3.39 8.556-1.151 2.851-2.32 5.697-3.804 8.424h3.266-.001ZM269.323.267h-7.285c2.651.573 5.157 1.207 7.285 2.86V.267ZM270 26.142c-2.214 1.727-4.785 2.438-7.432 3.086H270v-3.086ZM268.355 15.487v-2.865c-2.218.85-4.504 1.056-6.788 1.302 2.291.384 4.658.418 6.788 1.563ZM255.65.264c.349 9.682.376 19.321.024 28.96h3.453c-.261-9.676-.195-19.319.03-28.96h-3.507ZM245.972 12.877c-.441 1.51-.907 3.01-1.36 4.516 2.232-5.724 4.244-11.56 6.913-17.112h-3.384c.181 1.437 0 2.828-.213 4.209-.436 2.844-1.147 5.628-1.956 8.387ZM224.865 2.568c-.32-.845-.583-1.71-.873-2.568h-.085c-.451 1.347-.884 2.702-1.369 4.036-.144.394-.095.705.046 1.074 1.977 5.188 3.98 10.367 5.889 15.58 1.001 2.737 1.831 5.537 2.748 8.305.035.103.164.251.25.251 1.198.018 2.399.01 3.636.01-.355-.83-.712-1.6-1.014-2.392-3.083-8.096-6.16-16.195-9.228-24.296ZM241.582 25.584c.035-.1-.014-.243-.056-.355-1.657-4.384-3.379-8.746-4.959-13.158-1.318-3.677-2.476-7.41-3.694-11.12-.228-.694-.202-.701-.937-.701h-3.024c1.896 4.909 3.813 9.79 5.667 14.693 1.854 4.904 3.643 9.833 5.496 14.844.525-1.454 1.024-2.826 1.509-4.205l-.002.002ZM11.428.58h-.083c-.443 1.32-.866 2.648-1.342 3.957-.14.386-.092.69.045 1.052 1.939 5.087 3.903 10.163 5.775 15.273.982 2.682 1.794 5.428 2.694 8.142.033.101.16.245.244.247 1.176.016 2.351.01 3.564.01-.348-.814-.698-1.57-.995-2.344-3.02-7.938-6.036-15.877-9.045-23.819-.312-.829-.572-1.677-.857-2.517V.58ZM71.078 25.96c-.02.031-.045.06-.066.092-.867 1.139-1.944 2.079-3.311 2.748-.021.01-.032.033-.027.052.004.021.028.025.03.027a9.423 9.423 0 0 0 3.156-1.149c.05-.03.536-.28.88-.239.14.016.396.046.67.21.134.078.42.278.594.47.027.03.266.262.375.27V20.746a14.264 14.264 0 0 1-2.144 4.987c-.053.074-.102.15-.157.225v.001ZM73.417 1.586c-.024-.07-.08-.007-.179.093-.462.53-1.972.264-2.38.027A9.267 9.267 0 0 0 67.749.58a9.026 9.026 0 0 1 2.555 1.876c.7.785 1.28 1.601 1.765 2.45.124.232.246.465.358.706.037.077.076.14.113.19.363.762.655 1.55.878 2.373 0 0 .004-6.58 0-6.589ZM98.498 3.385V.583h-7.144c2.601.562 5.056 1.184 7.144 2.803v-.001ZM55.396 7.658c.73-2.947 2.082-5.51 4.864-7.078-3.859 1.127-9.082 6.133-9.201 14.036-.098 6.522 3.977 13.075 9.087 14.433-2.091-1.275-3.376-3.18-4.195-5.44-1.406-3.875-1.497-7.892-1.209-11.932.097-1.35.327-2.707.652-4.02l.002.001ZM85.093.58c.343 9.492.369 18.942.023 28.39H88.5c-.256-9.485-.191-18.937.03-28.39h-3.437ZM3.202 29.248c.056-1.012.002-2.003.186-2.946.436-2.24.99-4.458 1.483-6.687.07-.323 1.526-4.938 2.183-7.014-1.123 2.791-2.197 5.6-3.323 8.39C2.603 23.784 1.457 26.573 0 29.248h3.202v-.001ZM45.581.58c1.006 5.443 1.248 11.052 1.538 16.655.281-3.476.404-8.238.777-11.676.23-2.12.555-2.988 1.07-4.98h-3.385ZM47.924 29.789c.091-1.618-.095-3.274-.053-4.32.014-.35.037-.958-.246-1.643-.128-.311-1.546-2.263-2.153-3.1A15245.31 15245.31 0 0 0 31.35 1.213c-.18-.246-.452-.585-.696-.597-1.232-.062-2.47-.028-3.877-.028a2341.818 2341.818 0 0 1 21.148 29.199ZM25.922 29.608h3.385c-1.005-5.444-1.25-11.052-1.538-16.655-.281 3.476-.404 8.238-.776 11.675-.23 2.12-.556 2.988-1.07 4.98ZM77.661.58c.343 9.492.37 18.942.023 28.39h3.385c-.257-9.485-.192-18.937.03-28.39H77.66ZM137.519.583h-7.142v2.803c2.086-1.62 4.543-2.24 7.142-2.803ZM124.93 29.789c.091-1.618-.095-3.274-.051-4.32.014-.35.037-.958-.246-1.643-.129-.311-1.547-2.263-2.153-3.1a14865.9 14865.9 0 0 0-14.124-19.512c-.179-.246-.451-.585-.696-.597-1.231-.062-2.47-.028-3.876-.028a2311.436 2311.436 0 0 1 21.149 29.199h-.003ZM124.902 5.56c.23-2.12.555-2.989 1.07-4.98h-3.385c1.005 5.443 1.248 11.052 1.538 16.655.281-3.476.404-8.238.777-11.676ZM140.139.58c.343 9.492.369 18.942.023 28.39h3.385c-.257-9.485-.19-18.937.03-28.39h-3.438ZM90.894 13.97c2.246.377 4.567.41 6.655 1.531v-2.809c-2.176.835-4.416 1.037-6.655 1.276v.001ZM104.777 12.953c-.281 3.476-.404 8.238-.777 11.675-.23 2.12-.555 2.988-1.07 4.98h3.384c-1.005-5.444-1.249-11.052-1.537-16.655ZM99.16 25.947c-2.17 1.694-4.69 2.39-7.284 3.027h7.284v-3.027Z"/></g><defs><clipPath id="a"><path fill="#fff" d="M0 0h270v29.789H0z"/></clipPath></defs></svg>