<svg xmlns="http://www.w3.org/2000/svg" viewBox="0 0 216 268.89"><defs><style>.cls-1{fill:#231f20;}</style></defs><g id="Layer_2" data-name="Layer 2"><g id="Layer_1-2" data-name="Layer 1"><path class="cls-1" d="M81,32.25s2-3.23,0-5.34h0s-.54-.62,1.14-1.19h0s5.3-1.86,7-4.16h0c1.43-2.18,2.64-4,3.67-5.63h0s1.21-3.85-4.61-4.26h0a112.79,112.79,0,0,0-21.51,1.67h0s-1.9.14-4.75,3.05h0A136.31,136.31,0,0,0,42.28,41.8h0a2.32,2.32,0,0,1-1.44-.74h0c-.12-.24-.28-.52-.39-.75h0a69.53,69.53,0,0,0-7.58,4.28h0s-.22-.11,0,.44h0c.24.55,6.39,8.92,6.39,8.92h0s1.38,2.8,5.82,2.15h0c4.94-.79,10.86-1.89,17.54-3.26h0s2.56.7,7.73-6.17h0C73.94,41.75,77.5,36.91,81,32.25Zm-2.6-16.67c2,.25,1.19,2.21,1.19,2.21h0c-1.41,1.65-2.85,3.39-4.43,5.36h0a8.49,8.49,0,0,1-3,1.88h0c-1.44.28-2.8.59-4.23.94h0c-2.75.15-2-1.52-2-1.52h0C68.57,21.27,71.1,18.5,73.5,16h0ZM54.28,50.22c-2.77,3.35-6.47.15-6.47.15h0c-1.28-1.45-2.45-2.81-3.65-4.2h0c-.93-2.06,2.19-2.85,2.19-2.85h0c1.46-.49,2.95-1,4.56-1.49h0c3.06-.79,3.75-2.62,3.75-2.62h0c1.67-2.35,3.34-4.63,5.1-6.94C61.6,30.16,63,30.16,63,30.16h0C67.36,31.49,64,37.25,64,37.25h0C60.5,41.74,57.26,46.05,54.28,50.22Z"/><path class="cls-1" d="M94.63,26.27c-2.4,1.9-5,4-7.89,6.31h0c.7,3.73,1.35,7.46,1.91,11.32h0c3.1-2.41,6-4.66,8.61-6.85h0C96.49,33.23,95.64,29.68,94.63,26.27Z"/><path class="cls-1" d="M43.87,28c-1.81,1.38-3.45,2.68-5.06,4h0c-.2,2.15-.34,4.28-.4,6.53h0c1.57-1.27,3.21-2.52,5-3.83h0C43.51,32.38,43.64,30.21,43.87,28Z"/><path class="cls-1" d="M85.67,114.84,91,113.27c1.94-.55,4.81-.62,6.92-1.5s1.69-2.34,2.32-3.84-1.17-1.22-1.17-1.22a30.41,30.41,0,0,1-4.78-.19c-1.68-.3-3.61.28-6.51,1.1a19.77,19.77,0,0,0-6.38,3.46,2.62,2.62,0,0,0-.84,3.41C82,117.51,84.93,115,85.67,114.84Z"/><path class="cls-1" d="M76.53,126.73c0,1,1.77,1.58,2.72,2.11a5.17,5.17,0,0,0,3.57.51c1.2-.35,1.76-.24,2.49-.47a4.92,4.92,0,0,0,2.13-1.69,4.37,4.37,0,0,0,1.14-2.41c0-.81-1-1.58-1-1.58a10.8,10.8,0,0,1-1.8-.76,8.14,8.14,0,0,0-2.12-1,4,4,0,0,0-2.27.4C76.93,122.66,76.49,125.69,76.53,126.73Z"/><path class="cls-1" d="M43.83,118.43c-1.77.25-2.91-1-5.76-1.76s-4.48,0-6.24.26-3.78,2.44-3.78,2.44c-1.51,2,.9,3.92,1.63,3.71s2.22.4,3.34.6,3.29-.44,4.87-.36,3.39-1,4.54-1.59a10.51,10.51,0,0,0,3.22-2.53C46.39,118.18,45.59,118.17,43.83,118.43Z"/><path class="cls-1" d="M56.49,153.32c-.61-1.13-2.46-3-3.89-5.17s-1.31-3.56-1.37-6.45.48-2.78.42-4.85-.95-.53-1.63.74a46,46,0,0,1-4,5.37c-1.92,2.39-.46,6.45-.46,6.45a22.38,22.38,0,0,0-.33,2.46c0,.8-.73,2-.92,3.18s2.89,3.61,3.19,4.59,1.87,1.81,2.54,2.4S54,162,54,162a19.55,19.55,0,0,0,2.38-1.75c.84-.79,2.66-2.63,2.3-3.84S57.06,154.47,56.49,153.32Z"/><path class="cls-1" d="M37.69,130.71a21,21,0,0,1-2.75,1.37c-.79,1.8-2.3,2-2.59,2.85s.52.89,1.4,1.17,1.72,1.36,3.45,1.89,4.67-1.11,5.76-2,2.27-1.19,2.71-2.37-.83-1-2-1.27-2.5-1.37-3.94-1.73S38.37,130.29,37.69,130.71Z"/><path class="cls-1" d="M60.09,173.91a18.81,18.81,0,0,0-3.45,2.58c-1.06.86.55,2.74,1.8,3.43s3.92-.09,5.1.34.81,1.07.81,1.07c.87,1.09,3.51,1.1,4.55,1.06a32.73,32.73,0,0,0,3.29-.45c1.75-.25,1.3-.91,2.3-2a4.6,4.6,0,0,0,1.44-2.25c.45-1.21-.26-1.79-1.15-3.09s-2.36-1.69-4.08-2.24L69,171.83a14.89,14.89,0,0,1-4.2,1A10.38,10.38,0,0,0,60.09,173.91Z"/><path class="cls-1" d="M212.08,155.81c-4.09-3.23-7.77-8.54-10.17-12.42a21.5,21.5,0,0,0,2.88-9.84c1.46-8.55-5.29-12.3-7.41-13.28L192.8,73.36C174.79-15.07,89.39,1.17,89.39,1.17S5.81,14.43,0,99.71c0,0-1.46,50.17,13,82.06,0,0,6.05,8.84,4.62-3.67s-9.08-38.21-8.06-74.26c0,0-9.32-6.8-1-18,1-1.27,1.72-2.44,2.46-3.58l-.09.46S29,64.52,65.29,61.76c0,0,36.2-5.76,74.13,16.83,0,0,8.34,7.2,12.11,4.37,0,0,3.71-4.18-6.37-9.75,0,0-30.4-21.4-79.37-18,0,0-30.15,1.1-49.94,13,.1-.78.19-1.61.27-2.45C16.85,58.18,34.9,14.87,87,6.91c0,0,41.78-8,58,51.45,0,0,7.52,22.14,17.43,21.34,0,0,13.74-3.19,2.62-24.18S144.63,29,142.68,24.19c-1.37-3.42,3.59-9.67,15.78,2.59,0,0,2.63,3,4.93,5.78,27.09,33,25.84,72.57,25.84,72.57l0,4.26c.53,8.14-2.82,6.89-2.82,6.89-2.31-.18-4.16-7.32-4.16-7.32-2.66-11-8.32-13.69-8.32-13.69-4.62-1.33-20.62,1.76-19.36,19.93s9.86,41.65,5.75,51.15L157.33,172c-5.45,10.81.51,11.57,1,16.46,0,0,3.15,8.5-12.08,19.46,0,0-4.46,4.45-3.29,6.57s5.1-.33,6.87-1.62c0,0,9.17-4.63,14-10.47,3.26-3.93,9.79-7.69,9.79-7.69,20.13-9,16-22.35,15.47-26-.73-4.47-1.93-6.94-2.48-9.94s1.74-3.69,1.74-3.69c3.25-2.65,6.15,3.32,6.72,15.09.62,12.35,2.58,38.5-39.77,57.09,0,0-8.52,9.33-13.72,11.52-2.7,1.13-4.11,7.24-5.17,9.31s-2.23,3.3-3.73,1.91.24-4.19.24-4.19c2.89-3.45,6.12-4.85,4.31-8.67-2.4-5.05-7.28-1.27-7.28-1.27-5.38,5.06-15.72,5.48-23,7.7-5.19,1.57-5.85-1.19-5.67-3.35.83-5.45,7.41-7.13,7.41-7.13s21.82-6.83,31.32-15.39c0,0,2.68-4.41-2.7-1.34,0,0-16.21,8.36-23,10.53-3,1-3.78.76-3.68.15,3.83-4.5,4.72-11.41,4.72-11.41a8.84,8.84,0,0,0-.17-3.55,11.5,11.5,0,0,1,2.91-7.13c8.35-4.72,22.73-14.89,31.06-32.06,2-.71,9.2-3.79,10.22-10.85,0,0-.4-16.16-4.46-19.58a6.35,6.35,0,0,0-.94-1.87c-2.18-1-1.15,3.67-1.15,3.67a22.83,22.83,0,0,1,.12,3.59l-2.05,12c-3.66,12-13.61,29-39.89,43.6a22.84,22.84,0,0,0-2.67-3.11c-3-2.76,1.83-4.59,3.78-6.41s16.09-9.05,25.21-23.43c2.89-4.52,4-7,4.29-8.47a40.35,40.35,0,0,0,2.6-3.48s5.75-3.87,3-15.54c-1.14-4.74-1.4.54-1.4.54,1.31,5-.33,7.17-.33,7.17-1.76,1.53-3.69-.8-3.69-.8-2.28-7.48.11-16.23.11-16.23a12.7,12.7,0,0,0-.63-8.47c1.35-2.39,3.33,4.49,3.83,6.93,0,0,.14,4.54.85,4.94l1.19-3.38s-4.84-44.93-45.52-52.86c0,0-2.45.74,1.48,2.52,2.55,1.15,9.87,3.88,11.49,9.35-.8-.43-1.28-.64-1.28-.64C93,80,73.75,81.85,73.75,81.85c-22.49-1.43-43,6.41-53.81,11.67-.13-.16-.21-.1-.23.12a53.28,53.28,0,0,0-7.42,4.19c-1.48,1.23-.86,1.78-.18,2-.6,6.87-2.13,29.89,3.8,35.13,1,1.55,3.08,2.51,5,4.57s3,3.07,3.22,3.79,1,0,1.38-2.49,1.09-5.31-.83-8.18-4.34-3.19-3.71-5.49,1.53-4.67,1.25-5.63a6.17,6.17,0,0,1,1.13-4.28s3.07-3.8,1.58-6.24-3.26-3-2.72-6.58,2-3.21-.42-7.78c-.17-.29-.29-.51-.42-.76C64.45,76.85,99,91.13,99,91.13s.72.29,1.85.81c3.38,2.31,8.4,6.23,9.75,9.64,2.07,5.24-1.43,12.61,5,14.52s13.72,4.4,14.62,11.17c.24,1.73.61,3.79,1,5.82.29,10.3-.6,19.83-1.49,21.37-1.4,2.46-1.23,1.81.84,4.54s2.91,8.44,1.51,10.89a89.44,89.44,0,0,1-22,17.09,8.56,8.56,0,0,0,1.34-2c.27-.86-.06-2.05-1.46-1.42s-2.72,2.38-5.89,3.32-4.82.61-7.49,4c-.64.83-1.14,1.52-1.54,2.12A60.54,60.54,0,0,1,84.31,195c-17.22,1.49-29.72.9-38.45-.28a12.06,12.06,0,0,0-1.23-2.75c-2.57-4.25-3.59-4.22-4.49-8.14a56.39,56.39,0,0,0-3.86-10.46,44.8,44.8,0,0,0-3.86-6s-.81-3.71-2.29-5.13-2.3-2.48-3-3.06a55.5,55.5,0,0,1-3.83-7.91c-.83-2.65-4-2.24-3.27,3.2s2.66,26.84,4.51,30.29c1.13,2.13,1.56,4.16,3,5.57-2,0-1.7,1.77,1.31,2.63,4,1.12,22.5,7.83,51.91,6.23,0,0,7.28,1.13,7,5.33-.24,3.61-4.32,6.14-6.22,8.35-11.25.7-38.07.78-70.49-10.31-3.79-1.31-3.42.33-3.42.33-.36,2.46,2.77,3.74,2.77,3.74s15.37,8.55,56.05,11.16c10.58,1.14,10.23,3.51,10.23,3.51s.56,1.17,1.28,2.9,4.68,6.78,9.24,7.7a.76.76,0,0,0,.16,0c1.55,1,3,1.91,3.74,2.52,1.95,1.51,4.79,8.5,1.29,10.82,0,0-45.54,8.56-85.39-12.89,0,0-3.19-2.5-4.21-.07,0,0-.93,1.25,3.37,4.13,0,0,7.48,8,46.51,16.28A2.65,2.65,0,0,1,54.77,256s-.84,4.72,4,5.83c0,0,7.49,1.45,7.51-3.08,0-.67-1.06-1.28-1.06-1.28-1.8-.24-1.43-1.47-1.43-1.47.23-1,1.74-1.36,1.74-1.36s1.93-1.67,7.72-.87,6.13,1,7.25,5.27,2.26,4.42,4.61,4.49,18.16-1.43,24.32-2.53a24.73,24.73,0,0,0,10.82-5.27c2.81.09,7,.56,5.16,4.32s-4.89,7.18-1,8.29,7.65.75,14.13-4.53,23.12-21.19,34.5-28.65,34.82-27.13,34.82-37.12,6.76-23.72,6.76-23.72S219,161.37,212.08,155.81ZM171.4,129.47s-3.57-12.72,2.48-14c0,0,7,1.87,6.28,13.7,0,0,.27,6.67-3.15,7.2C177,136.4,172.49,136.32,171.4,129.47Zm28,9.41c-2.59,6.55-17.55,16.15-17.55,16.15C173,163.82,171,159.6,171,159.6c-1.66-4.63,8.52-11.16,8.52-11.16,19.46-12.29,17.12-22,17.12-22,2.77,0,3.19.61,4,4.28S199.38,138.88,199.38,138.88Z"/><path class="cls-1" d="M26.4,229.44s2.07-1.14-3.45-2.55c0,0-.27-9-4.71-10.48s-8.51-2.54-8.51-2.54S5,215,5.15,218.21l.14,3.21-2-.42s-4.2-.07-.17,2.09S15.52,228.28,26.4,229.44Z"/></g></g></svg>