<svg class="d-b w100 h-auto desktop" 
         viewBox="0 0 159 32" 
         fill="none" 
         xmlns="http://www.w3.org/2000/svg">
      <g clip-path="url(#clip0_1079_19722)">
      <path d="M62.2977 3.55241C59.296 1.25523 55.4875 0.126452 51.7595 0.114837C48.0315 0.103221 44.2168 1.20945 41.1994 3.48613C38.1834 5.76145 36.083 9.16282 36.0646 13.0787C36.0468 16.9932 38.1178 20.4082 41.1174 22.7034C44.1197 25.0005 47.9283 26.1286 51.6556 26.1402C55.3836 26.1519 59.1983 25.0456 62.2157 22.769C65.2317 20.4936 67.3328 17.0923 67.3505 13.1764C67.3683 9.26189 65.2973 5.84686 62.2977 3.55173V3.55241ZM58.0689 19.2152C56.2794 20.7123 53.9658 21.4735 51.6563 21.4612C49.3475 21.4489 47.0401 20.6645 45.2676 19.1462C43.4932 17.6259 42.3794 15.4585 42.3951 13.0787C42.4109 10.6968 43.554 8.54103 45.3462 7.04055C47.135 5.5428 49.4493 4.78232 51.7588 4.79461C54.0676 4.80691 56.3743 5.59132 58.1468 7.10956C59.9212 8.62986 61.0343 10.7972 61.0193 13.1771C61.0036 15.559 59.8604 17.7147 58.0682 19.2152H58.0689Z" fill="currentColor"/>
      <path d="M26.1519 3.48613C23.1339 1.21013 19.3198 0.103221 15.5919 0.114837C11.8646 0.126452 8.05597 1.25455 5.05364 3.55173C2.05337 5.84755 -0.0176518 9.26258 0.00011341 13.1771C0.0178787 17.0923 2.11896 20.4943 5.13495 22.7696C8.15231 25.0463 11.9664 26.1525 15.695 26.1409C19.4223 26.1293 23.2309 25.0012 26.2332 22.704C29.2328 20.4089 31.3045 16.9939 31.2861 13.0794C31.2683 9.16418 29.1672 5.76214 26.1512 3.48682L26.1519 3.48613ZM22.0837 19.1462C20.3113 20.6645 18.0045 21.4489 15.695 21.4612C13.3855 21.4735 11.0713 20.7123 9.28246 19.2152C7.48953 17.7147 6.34709 15.559 6.33138 13.1771C6.31566 10.7972 7.4294 8.62918 9.20388 7.10956C10.9763 5.59132 13.2831 4.80691 15.5925 4.79461C17.902 4.78232 20.2156 5.5428 22.0051 7.04055C23.798 8.54103 24.9405 10.6968 24.9562 13.0787C24.9719 15.4585 23.8582 17.6266 22.0837 19.1462Z" fill="currentColor"/>
      <path d="M72.5147 29.0442C73.0278 28.8782 73.3743 28.4409 73.3743 27.8676C73.3743 27.159 72.8611 26.6309 72.1375 26.6309H70.4785V30.5372H71.021V29.1043H71.9257C72.2325 29.5819 72.5393 30.0596 72.8461 30.5372H73.4795C73.1577 30.0391 72.8358 29.5416 72.514 29.0442H72.5147ZM71.0217 28.5919V27.144H72.1375C72.5598 27.144 72.8468 27.4303 72.8468 27.8676C72.8468 28.3049 72.5297 28.5919 72.0624 28.5919H71.0217Z" fill="currentColor"/>
      <path d="M71.7315 25.3188C69.7705 25.3188 68.3984 26.7817 68.3984 28.6669C68.3984 30.5521 69.6953 31.9999 71.7315 31.9999C73.7676 31.9999 75.0645 30.507 75.0645 28.6669C75.0645 26.8268 73.7068 25.3188 71.7315 25.3188ZM71.7315 31.5633C69.9816 31.5633 68.8808 30.2508 68.8808 28.6676C68.8808 27.0844 69.9973 25.7568 71.7315 25.7568C73.4656 25.7568 74.5971 27.0838 74.5971 28.6676C74.5971 30.2514 73.5114 31.5633 71.7315 31.5633Z" fill="currentColor"/>
      <path d="M154.573 26.0686L153.242 29.1174H154.389L158.994 18.4746H157.831L155.123 24.8605L152.263 18.4746H151.1L154.573 26.0686Z" fill="currentColor"/>
      <path d="M143.681 19.9423V18.4753H142.609V26.098H143.681V22.2149C143.681 20.489 144.859 19.2953 146.434 19.2953C147.78 19.2953 148.974 20.1869 148.974 21.8412V26.098H150.045V21.5248C150.045 19.5112 148.408 18.3462 146.602 18.3462C145.18 18.3462 144.17 19.0944 143.68 19.9423H143.681Z" fill="currentColor"/>
      <path d="M139.793 18.4744V20.0568C139.181 19.0504 138.018 18.3452 136.611 18.3452C134.346 18.3452 132.525 20.0999 132.525 22.2713C132.525 24.4428 134.346 26.2125 136.611 26.2125C138.018 26.2125 139.181 25.5224 139.793 24.5152V26.097H140.864V18.4744H139.793ZM136.703 25.2921C134.944 25.2921 133.551 23.9686 133.551 22.272C133.551 20.5754 134.928 19.2663 136.703 19.2663C138.478 19.2663 139.855 20.6321 139.855 22.272C139.855 23.9119 138.447 25.2921 136.703 25.2921Z" fill="currentColor"/>
      <path d="M127.187 18.3452C125.779 18.3452 124.632 19.0353 124.004 20.0281V18.475H122.934V29.1178H124.004V24.5152C124.632 25.5217 125.794 26.2125 127.187 26.2125C129.466 26.2125 131.272 24.4722 131.272 22.2713C131.272 20.0705 129.467 18.3452 127.187 18.3452ZM127.11 25.2921C125.351 25.2921 123.959 23.9256 123.959 22.272C123.959 20.6185 125.366 19.2663 127.11 19.2663C128.855 19.2663 130.247 20.6321 130.247 22.272C130.247 23.9119 128.854 25.2921 127.11 25.2921Z" fill="currentColor"/>
      <path d="M110.157 19.8696V18.4744H109.086V26.097H110.157V21.9263C110.157 20.5741 110.968 19.2656 112.559 19.2656C113.814 19.2656 114.685 20.1716 114.685 21.8115V26.097H115.756V21.7965C115.787 20.5023 116.598 19.2656 118.143 19.2656C119.428 19.2656 120.27 20.1716 120.27 21.8115V26.097H121.341V21.5238C121.341 19.4672 119.948 18.3452 118.312 18.3452C117.041 18.3452 115.909 19.0353 115.42 20.186C114.961 18.9779 113.936 18.3452 112.727 18.3452C111.518 18.3452 110.57 19.0353 110.157 19.8696Z" fill="currentColor"/>
      <path d="M103.425 18.3452C101.115 18.3452 99.2793 20.1142 99.2793 22.2713C99.2793 24.4284 101.115 26.2125 103.425 26.2125C105.736 26.2125 107.587 24.4291 107.587 22.2713C107.587 20.1135 105.766 18.3452 103.425 18.3452ZM103.425 25.2778C101.697 25.2778 100.304 23.9543 100.304 22.272C100.304 20.5898 101.666 19.2806 103.425 19.2806C105.185 19.2806 106.562 20.6185 106.562 22.272C106.562 23.9256 105.185 25.2778 103.425 25.2778Z" fill="currentColor"/>
      <path d="M93.1733 26.141C95.4377 26.141 97.2586 24.8468 98.054 23.0054C97.6973 22.9145 97.3399 22.823 96.9833 22.7321C96.341 24.1704 94.9792 25.1482 93.1733 25.1482C90.6951 25.1482 88.9049 23.2787 88.9049 21.0061C88.9049 18.7335 90.7258 16.8354 93.1733 16.8497C94.9635 16.8497 96.3403 17.8706 96.9833 19.2945C97.3399 19.1989 97.6973 19.1032 98.054 19.0069C97.2429 17.1517 95.4069 15.8569 93.1733 15.8569C90.1594 15.8569 87.8027 18.1582 87.8027 21.0054C87.8027 23.8527 90.1286 26.1403 93.1733 26.1403V26.141Z" fill="currentColor"/>
      <path d="M153.846 0.114746H150.596V10.1822H153.846C156.766 10.1822 158.995 8.02507 158.995 5.14846C158.98 2.25751 156.722 0.114746 153.846 0.114746ZM153.846 9.21875H151.646V1.07817H153.846C156.233 1.07817 157.959 2.78978 157.959 5.14846C157.959 7.50714 156.262 9.21875 153.846 9.21875Z" fill="currentColor"/>
      <path d="M144.124 0C141.291 0 139.076 2.31563 139.076 5.14851C139.076 7.98138 141.263 10.2833 144.124 10.2833C146.986 10.2833 149.187 7.98206 149.172 5.14851C149.172 2.28625 146.914 0 144.124 0ZM144.124 9.30489C141.794 9.30489 140.111 7.42041 140.111 5.14851C140.111 2.8766 141.837 0.977772 144.124 0.977772C146.411 0.977772 148.136 2.86157 148.136 5.14851C148.136 7.43544 146.425 9.30489 144.124 9.30489Z" fill="currentColor"/>
      <path d="M134.79 0.114746H130.475V10.1822H131.525V6.52937H134.79C136.746 6.52937 137.91 5.10542 137.91 3.32206C137.91 1.5387 136.731 0.114746 134.79 0.114746ZM134.731 5.58029H131.524V1.06382H134.731C136.17 1.06382 136.903 2.05662 136.903 3.29336C136.903 4.53009 136.17 5.58029 134.731 5.58029Z" fill="currentColor"/>
      <path d="M128.188 10.2835C128.604 10.2835 128.936 9.96719 128.936 9.5497C128.936 9.13222 128.605 8.80151 128.188 8.80151C127.77 8.80151 127.439 9.13222 127.439 9.5497C127.439 9.96719 127.77 10.2835 128.188 10.2835Z" fill="currentColor"/>
      <path d="M124.29 5.00497C125.268 4.67427 125.872 3.82563 125.872 2.66064C125.872 1.1219 124.764 0.114746 122.909 0.114746H118.58V10.1822H123.038C125.009 10.1822 126.217 9.17571 126.217 7.46409C126.217 6.12692 125.498 5.33568 124.29 5.00497ZM119.587 1.06382H122.881C124.132 1.06382 124.88 1.71089 124.88 2.78978C124.88 3.94042 124.046 4.63054 122.795 4.63054H119.587V1.06382ZM122.995 9.2331H119.587V5.49352H122.895C124.146 5.49352 125.168 5.96771 125.168 7.31992C125.168 8.57101 124.333 9.23242 122.996 9.23242L122.995 9.2331Z" fill="currentColor"/>
      <path d="M113.145 5.868C112.915 3.96985 111.333 2.43042 109.319 2.43042C107.162 2.43042 105.422 4.18508 105.422 6.35654C105.422 8.528 107.133 10.297 109.319 10.297C110.815 10.297 112.225 9.46273 112.857 8.19729C112.541 8.13512 112.225 8.07225 111.908 8.01008C111.362 8.84436 110.384 9.37663 109.319 9.37663C107.809 9.37663 106.558 8.29774 106.428 6.73029H113.159C113.217 6.47133 113.202 6.16932 113.145 5.86731V5.868ZM106.429 5.91104C106.587 4.48709 107.766 3.3508 109.32 3.3508C110.874 3.3508 112.009 4.48709 112.154 5.91104H106.43H106.429Z" fill="currentColor"/>
      <path d="M98.0865 4.02652V0.114746H97.0801V10.1822H98.0865V6.2991C98.0865 4.57314 99.1941 3.37945 100.675 3.37945C101.941 3.37945 103.063 4.27113 103.063 5.92535V10.1822H104.069V5.60899C104.069 3.59537 102.531 2.43038 100.833 2.43038C99.4955 2.43038 98.5464 3.17857 98.0865 4.02652Z" fill="currentColor"/>
      <path d="M91.3264 10.1822H92.3623V1.07817H95.7848V0.114746H87.8027V1.07817H91.3264V10.1822Z" fill="currentColor"/>
      <path d="M128.728 0.114746H127.678V7.86723H128.728V0.114746Z" fill="currentColor"/>
      </g>
      <defs>
      <clipPath id="clip0_1079_19722">
      <rect width="158.995" height="32" fill="currentColor"/>
      </clipPath>
      </defs>
    </svg>