<svg class="icon icon__brand-logo icon icon__brand-logo" viewBox="0 0 248 28" xmlns="http://www.w3.org/2000/svg"><path d="M79.996 18.024c-.784 1.171-1.802 1.785-2.876 1.785-1.134 0-1.83-.809-1.83-2.036 0-1.841 1.48-2.426 4.735-2.984zM85.31 19.5c-1.017 0-1.046-.725-1.046-2.12l.03-5.437v-.056c0-2.9-2.005-4.35-5.927-4.35-4.126 0-6.625 1.7-6.625 3.569 0 1.032.697 1.701 1.743 1.701 1.25 0 2.063-.836 2.063-2.147 0-.363-.087-.78-.233-1.311.553-.39 1.366-.614 2.325-.614 1.801 0 2.412.893 2.412 2.817v.14l-.03 1.477c0 .782-.61.614-3.02 1.06-3.837.725-5.928 1.534-5.928 4.044 0 2.064 1.424 3.263 3.922 3.263 2.266 0 4.01-.753 5.259-2.26.087 1.45 1.133 2.26 2.876 2.26 1.889 0 3.051-.614 4.097-2.176l-.726-.53c-.349.447-.727.67-1.192.67m41.398-14.114c1.314 0 2.522-1.282 2.522-2.427 0-1.2-.683-1.88-1.891-1.88-1.183 0-2.417 1.226-2.417 2.48 0 1.09.708 1.827 1.786 1.827" clip-rule="evenodd"/><path d="M70.37 18.563v-6.235c0-3.145-1.55-4.761-4.444-4.761-2.222 0-3.917.964-5.262 3.033-.293-1.984-1.784-3.033-4.269-3.033-2.076 0-3.946 1.049-5.291 3.033l.029-3.033c-1.93.17-4.064.284-6.432.369v1.19c1.959.057 2.31.17 2.31 1.587v7.708c0 1.498-.054 1.705-1.834 1.885-1.267-.143-1.295-.499-1.295-1.743v-6.235c0-3.145-1.549-4.761-4.443-4.761-2.222 0-3.918.964-5.263 3.033-.292-1.984-1.783-3.033-4.268-3.033-2.076 0-3.947 1.049-5.292 3.033l.03-3.033c-1.93.17-4.064.284-6.432.369v1.19c1.958.057 2.31.17 2.31 1.587v7.708c0 1.5-.054 1.705-1.839 1.885.08-1.63.172-3.26.289-4.89h-1.258c-.38 3.855-1.49 4.762-5.087 4.762H7.34V11.45h1.81c2.222 0 2.806.793 2.924 3.656h1.256c-.058-1.672-.117-3.061-.117-4.167 0-1.048.059-2.38.117-3.967h-1.256c-.206 2.92-.614 3.117-2.924 3.117H7.338V2.58h4.385c3.363 0 4.473.737 4.795 4.053h1.257a101 101 0 0 1-.321-5.555 732 732 0 0 1-13.478.113H0v1.332c2.193.029 2.485.37 2.485 2.466v12.753c0 2.126-.322 2.465-2.485 2.465v1.332h18.623l.001-.017c1.679-.075 2.958-.124 3.829-.124.877 0 2.222.057 4.063.142v-1.19c-1.783-.143-1.783-.426-1.783-1.928V12.64c.468-1.842 1.754-2.948 3.274-2.948 1.404 0 2.076.85 2.076 2.58v6.15c0 1.586 0 1.756-2.076 1.926v1.19c1.842-.084 3.217-.141 4.123-.141s2.222.057 3.975.142v-1.19c-1.812-.114-1.812-.454-1.812-1.928V12.64c.468-1.842 1.783-2.948 3.304-2.948 1.433 0 2.046.85 2.046 2.58v6.15c0 1.586 0 1.756-2.075 1.926v1.19c1.842-.084 3.216-.141 4.122-.141.736 0 1.747.037 3.04.097v.044l.483-.022.453.023v-.042c1.407-.062 2.502-.1 3.274-.1.877 0 2.222.057 4.064.142v-1.19c-1.783-.143-1.783-.426-1.783-1.928V12.64c.467-1.842 1.753-2.948 3.274-2.948 1.403 0 2.075.85 2.075 2.58v6.15c0 1.586 0 1.756-2.075 1.926v1.19c1.842-.084 3.216-.141 4.122-.141s2.222.057 3.976.142v-1.19c-1.813-.114-1.813-.454-1.813-1.928V12.64c.468-1.842 1.784-2.948 3.304-2.948 1.433 0 2.046.85 2.046 2.58v6.15c0 1.586 0 1.756-2.075 1.926v1.19c1.842-.084 3.216-.141 4.122-.141.907 0 2.222.057 3.976.142v-1.19c-1.754-.114-1.783-.397-1.783-1.786m31.144 1.552h-1.756v-8.322h1.871c2.907 0 4.232.97 4.232 3.933 0 3.391-1.123 4.388-4.347 4.388M99.758 2.502h1.439c2.792 0 4.059.74 4.059 3.904 0 2.993-1.152 4.018-3.8 4.018h-1.698zm4.661 8.578c3.771-.342 5.642-1.995 5.642-5.016 0-3.391-2.418-4.987-7.225-4.987-.72 0-2.763.114-6.16.114-1.382 0-2.735-.028-4.059-.114v1.34c2.16.028 2.447.37 2.447 2.48V17.72c0 2.137-.317 2.48-2.447 2.48v1.338c1.468-.056 2.907-.113 4.347-.113 2.101 0 4.087.113 5.93.113 5.382 0 8.031-1.453 8.031-5.443 0-2.963-2.217-4.758-6.506-5.015m24.792 7.337V7.54c-2.096.163-4.247.27-6.423.355-.428-.225-.954-.355-1.578-.355-1.743 0-3.257 1.193-4.03 3.436l.058-3.436c-2.001.17-4.116.284-6.316.37v1.192c1.914.057 2.258.17 2.258 1.59v7.724c0 1.59-.058 1.818-2.23 1.931v1.193c2.115-.085 3.63-.113 4.487-.113 1.229 0 2.886.028 5.001.113v-1.193c-2.715-.057-2.972-.142-2.972-1.93v-3.778c0-3.407 1.458-5.707 3.172-5.906-.257.511-.371.937-.371 1.391 0 1.307.714 2.017 1.943 2.017 1.057 0 1.829-.824 1.829-2.045a2.8 2.8 0 0 0-.15-.907c.847.126 1.036.46 1.036 1.504v7.724c0 1.646-.086 1.788-2.486 1.93v1.193c1.943-.085 3.515-.142 4.744-.142.885 0 2.285.057 4.2.142v-1.193c-2.143-.057-2.172-.34-2.172-1.93m88.913 1.276c-1.226 0-1.587-.75-1.587-2.22v-.347l.222-8.1h3.398v-1.27h-3.37l.111-4.526h-1.225c-.612 2.393-2.144 3.921-4.595 4.787v1.008h1.504l-.195 7.352v.404c0 3.17 1.003 4.757 4.094 4.757 2.201 0 3.648-.952 4.289-2.884l-.892-.403c-.417.98-.974 1.442-1.754 1.442m10.018-10.984c1.863 0 2.71 1.367 2.738 4.21l-5.673.112c.056-2.816 1.157-4.322 2.935-4.322m5.615 8.282c-.847 1.925-2.258 2.928-4.262 2.928-2.767 0-4.29-1.84-4.29-5.41v-.307l9.568-.083v-.363c0-3.765-2.653-6.219-6.746-6.219-4.375 0-7.254 2.845-7.254 7.028 0 4.267 2.879 6.972 7.395 6.972 3.586 0 5.702-1.339 6.577-4.24zm-92.328 1.257c-.736.944-1.613 1.43-2.603 1.43q-2.971 0-2.971-5.234c0-3.69.961-5.52 2.971-5.52 1.131 0 1.867.486 2.603 1.63zm6.108 1.83c-1.783-.085-1.868-.342-1.868-1.858V0c-2.263.171-4.441.286-6.563.344v1.229c1.867.029 2.32.114 2.32 1.487v5.75c-.991-1.144-2.263-1.63-3.961-1.63-3.594 0-6.082 2.83-6.082 7.436 0 4.205 2.375 6.922 6.054 6.922 1.81 0 3.168-.629 4.073-1.916l.057 1.916c2.093-.115 4.074-.2 5.97-.258z" clip-rule="evenodd"/><path d="M244.901 7.54c-1.717 0-3.209 1.193-3.97 3.436l.057-3.436c-1.971.17-4.054.284-6.222.37v1.192c1.886.057 2.224.17 2.224 1.59v7.724c0 1.59-.056 1.818-2.196 1.931v1.193a117 117 0 0 1 4.42-.113c1.211 0 2.844.028 4.927.113v-1.193c-2.674-.057-2.928-.142-2.928-1.93v-3.778c0-3.407 1.436-5.707 3.125-5.906-.253.511-.365.937-.365 1.391 0 1.307.703 2.017 1.913 2.017 1.043 0 1.803-.824 1.803-2.045 0-1.533-1.015-2.556-2.788-2.556m-38.904 10.484c-.785 1.171-1.802 1.785-2.877 1.785-1.134 0-1.831-.809-1.831-2.036 0-1.841 1.482-2.426 4.737-2.984zm5.313 1.477c-1.016 0-1.045-.725-1.045-2.12l.029-5.437v-.056c0-2.9-2.006-4.35-5.928-4.35-4.125 0-6.624 1.7-6.624 3.569 0 1.032.697 1.701 1.744 1.701 1.249 0 2.062-.836 2.062-2.147 0-.363-.088-.78-.233-1.311.552-.39 1.367-.614 2.325-.614 1.802 0 2.412.893 2.412 2.817v.14l-.029 1.477c0 .782-.61.614-3.021 1.06-3.836.725-5.928 1.534-5.928 4.044 0 2.064 1.423 3.263 3.923 3.263 2.266 0 4.008-.753 5.258-2.26.087 1.45 1.133 2.26 2.876 2.26 1.888 0 3.051-.614 4.097-2.176l-.726-.53c-.349.447-.727.67-1.192.67m-58.185 7.24c-2.939 0-4.512-.995-4.512-2.575 0-.85.466-1.464 1.369-1.873 5.297.556 8.149-.235 8.149 1.96 0 1.463-1.862 2.488-5.006 2.488m-.141-18.759c1.66 0 2.357 1.2 2.357 3.658s-.697 3.6-2.357 3.6c-1.717 0-2.386-1.2-2.386-3.687 0-2.4.756-3.57 2.386-3.57m1.22 10.858c-2.824-.088-4.25-.176-4.25-1.405 0-.702.524-.995 1.571-.995.437 0 .844.03 1.281.03 3.988 0 6.317-1.932 6.317-4.77 0-1.113-.321-2.079-1.049-2.927.262-.381.495-.556.757-.556.524 0 1.165.556 1.776.556.612 0 .931-.44.931-1.259 0-.292-.029-.585-.146-.848-.349-.176-.698-.205-1.105-.205-1.164 0-1.951.556-2.998 1.697-1.077-.849-2.561-1.346-4.308-1.346-3.872 0-6.2 2.048-6.2 4.975 0 1.932 1.077 3.366 3.027 4.01-1.717.79-2.532 1.667-2.532 2.955 0 1.229.698 2.107 2.095 2.752-1.891.525-2.91 1.638-2.91 3.101 0 1.99 2.211 3.394 6.374 3.394 5.384 0 8.557-2.195 8.557-5.296 0-3.073-2.561-3.717-7.188-3.863m43.949-10.109V7.54c-.922.085-1.7.114-2.391.114-.578 0-1.327-.029-2.191-.114v1.192c1.094.085 1.527.143 1.527.739 0 .227-.058.51-.144.795l-2.536 7.44-2.191-7.469a3 3 0 0 1-.115-.738c0-.596.23-.624 1.326-.767V7.54a62 62 0 0 1-3.459.114c-.865 0-2.046-.029-3.517-.114v1.192c1.038.114 1.442.228 1.442.767 0 .2-.057.511-.202.91l-2.738 7.24-2.364-7.469a2.5 2.5 0 0 1-.086-.595c0-.71.403-.796 1.614-.853V7.54c-1.585.085-2.853.142-3.805.142-1.009 0-2.277-.057-3.862-.142v1.192h.115c1.038 0 1.297.398 1.615 1.307l3.747 11.302 2.593.199c.779-1.846 1.24-2.897 1.355-3.21l2.739-6.9 2.968 9.91 2.566.2q1.123-2.854 1.642-4.345l2.566-7.014c.374-1.05.72-1.449 1.786-1.449" clip-rule="evenodd"/><path d="M164.895 13.031c.056-2.816 1.158-4.322 2.936-4.322 1.862 0 2.709 1.367 2.737 4.21zm2.82-5.494c-4.375 0-7.254 2.845-7.254 7.028 0 4.267 2.879 6.972 7.395 6.972 3.585 0 5.702-1.339 6.577-4.24l-.988-.306c-.847 1.925-2.259 2.928-4.261 2.928-2.767 0-4.292-1.84-4.292-5.41v-.307l9.569-.083v-.363c0-3.765-2.653-6.219-6.746-6.219" clip-rule="evenodd"/></svg>