<svg viewBox="0 0 3946.89 1743.14" xmlns="http://www.w3.org/2000/svg" data-name="Logo - black" id="Logo_-_black">
  <defs>
    <style>
      .cls-1 {
        stroke-width: 0px;
      }
    </style>
  </defs>
  <g>
    <path d="m452.92,1638.02c-43.58,33.69-94.26,50.68-150.74,50.68-68.06,0-127.01-24.32-175.17-72.35-48.13-48.08-72.57-107.04-72.57-175.29s24.44-126.85,72.57-174.89c48.27-48.08,107.21-72.4,175.17-72.4,93.16,0,146.52,46.63,166.57,64.2l4.74,4.17,40.79-36.07-5.72-5.44c-39.45-37.28-107.3-81.72-206.38-81.72-83.39,0-155.34,29.82-213.93,88.61C29.7,1286.45,0,1358.3,0,1441.05s29.7,155.29,88.25,213.84c58.6,58.6,130.54,88.25,213.93,88.25,77.29,0,145.3-27.51,202.11-81.72l2.27-2.15v-200.25h-53.64v179Z" class="cls-1"></path>
    <polygon points="1658.5 1682.3 1658.5 1145.75 1604.4 1145.75 1604.4 1736.34 1875.27 1736.34 1875.27 1682.3 1658.5 1682.3" class="cls-1"></polygon>
    <polygon points="2307.48 1682.3 2307.48 1145.75 2253.39 1145.75 2253.39 1736.34 2524.2 1736.34 2524.2 1682.3 2307.48 1682.3" class="cls-1"></polygon>
    <path d="m3664.92,1200.21h85.58c38.91,0,72.71,13.92,100.58,41.43,27.68,27.51,41.72,61.32,41.72,100.46s-14.04,73.45-41.79,101.08c-27.84,27.61-61.6,41.67-100.51,41.67h-85.58v-284.64Zm224.47,281.16c38.14-38.14,57.5-84.96,57.5-139.27s-19.36-100.46-57.5-138.84c-31.9-31.9-71.42-51.18-118.36-57.5h-160.2v590.59h54.09v-197.08l89.42.07,126.49,197.01h65.53l-133.95-206.78c28.45-9.3,54.26-25.55,76.98-48.2" class="cls-1"></path>
    <polygon points="3208.62 1199.78 3208.62 1145.73 2902.38 1145.73 2902.38 1736.33 3208.62 1736.33 3208.62 1682.28 2956.47 1682.28 2956.47 1468.06 3208.62 1468.06 3208.62 1414.02 2956.47 1414.02 2956.47 1199.78 3208.62 1199.78" class="cls-1"></polygon>
    <polygon points="1198.47 1196.08 1198.47 1149.45 899.66 1149.45 899.66 1732.63 1198.47 1732.63 1198.47 1686.05 946.32 1686.05 946.32 1464.36 1198.47 1464.36 1198.47 1417.71 946.32 1417.71 946.32 1196.08 1198.47 1196.08" class="cls-1"></polygon>
  </g>
  <g>
    <polygon points="100.34 949.73 100.34 2 25.73 2 25.73 1024.34 483.28 1024.34 483.28 949.73 100.34 949.73" class="cls-1"></polygon>
    <path d="m1120.64,508.56h-280.87l140.72-386.41,140.15,386.41ZM1015.91,2h-70.68l-375.26,1022.3h79.29l163.44-441.89h334.92l160.61,441.89h78.48L1015.91,2Z" class="cls-1"></path>
    <path d="m2117.9,1.98v694.44c0,71.54-25.77,133.79-76.57,184.87-50.87,51.04-113.17,76.93-185.18,76.93s-134.48-25.89-185.56-76.98c-51.04-51.04-76.93-113.21-76.93-184.83V1.98h-74.59v694.44c0,92.52,33.11,172.52,98.48,237.94,65.34,65.37,145.56,98.48,238.61,98.48s172.52-33.11,237.82-98.55c54.69-54.66,87.8-122.34,98.55-201.63V1.98h-74.63Z" class="cls-1"></path>
    <path d="m3655.01,508.56h-280.87l140.77-386.41,140.1,386.41ZM3550.28,2h-70.73l-375.21,1022.3h79.36l163.37-441.89h334.97l160.56,441.89h78.55L3550.28,2Z" class="cls-1"></path>
    <path d="m2495.12,77.31h161.65c71.61,0,133.74,25.65,184.83,76.29,51.04,50.56,76.93,112.76,76.93,184.83s-25.89,135-76.93,185.85c-51.09,50.85-113.28,76.64-184.83,76.64h-161.65V77.31Zm399.48,499.67c65.41-65.37,98.53-145.63,98.53-238.56s-33.11-172-98.53-237.94c-54.69-54.66-122.34-87.8-201.63-98.48h-272.44v1022.3h74.59v-348.1l174.43.07,222.09,346.36,1.1,1.67h90.8l-233.84-360.74c53.81-15.09,102.53-44.22,144.9-86.58" class="cls-1"></path>
  </g>
  <path d="m3864.09,0c39.6,0,72,32.4,72,72s-32.4,71.8-72,71.8-71.8-32.2-71.8-71.8S3824.49,0,3864.09,0Zm0,131.8c33.2,0,59.8-26.8,59.8-59.8s-26.6-59.8-59.8-59.8-59.8,26.6-59.8,59.8,26.8,59.8,59.8,59.8Zm-25-92.8c0-2,1.6-3.8,3.8-3.8h28.4c12.4,0,24.6,7.4,24.6,22.4s-10.6,20.4-16.2,21.8c4,7.8,8,15.8,12,23.6,1.4,2.4-.6,5.4-3.4,5.4h-6.8c-1.6,0-3-1.6-3.6-2.8l-11.2-25h-14.8v24c0,2-1.6,3.8-3.8,3.8h-5.2c-2.2,0-3.8-1.8-3.8-3.8V39Zm32.2,30c7.4,0,12-5.2,12-11.4,0-6.8-4.6-11.4-12-11.4h-19.6v22.8h19.6Z" class="cls-1"></path>
</svg>