<svg aria-label="Women&#x27;s Designer Fashion &amp; Luxury Clothing | ME+EM" class="block max-h-[18px] w-full md:max-h-[24px]" role="img" fill="none" viewBox="0 0 401 85" xmlns="http://www.w3.org/2000/svg"><title>Women&#x27;s Designer Fashion &amp; Luxury Clothing | ME+EM</title><path clip-rule="evenodd" d="M387.654 0L358.757 44.5373L330.123 0H317.512V84.7172H333.275V31.7071L354.554 65.3541H362.961L384.238 31.9493V84.7172H400V0H387.654ZM244.014 0V84.7172H301.283V70.6782H259.775V47.441H291.3V33.4021H259.775V13.7968H301.544L301.285 0H244.014ZM100.211 0V84.7172H157.479V70.6782H115.973V47.441H147.497V33.4021H115.973V13.7968H157.742L157.482 0H100.211ZM70.1402 0L41.244 44.5373L12.6094 0H0V84.7172H15.7617V31.7071L37.0405 65.3541H45.4474L66.7253 31.9493V84.7172H82.4879V0H70.1402ZM190.27 13.3441V34.1275H167.442V47.6498H190.27V68.4313H204.673V47.6498H227.5V34.1275H204.673V13.3441H190.27Z" fill="currentColor" fill-rule="evenodd"></path></svg>