<svg aria-labelledby="mlbr-title-logo mlbr-desc-logo" role="img" class="mulberry-logo" xmlns="http://www.w3.org/2000/svg" viewBox="0 0 354.31 111.29">
<defs><style>.cls-1{fill:#1d1d1b;}</style></defs>
<title id="mlbr-title-logo">mulberry.com</title>
<desc id="mlbr-desc-logo">Mulberry.com Official logo</desc>
<path class="cls-1" d="M219.44 90.38c10.37 0 16.51-9.75 18.23-13.36h-1.57c-2 2.52-6.13 7.55-13.36 7.55-8.8 0-12.26-8-12.26-16.51 0-9 3.14-16.66 8.8-16.66 4.24 0 6.29 4.24 5.66 9.43l-15.72 5-.16 2.36 23.58-7.07c0-6.76-4.56-12.73-12.58-12.73-9.43 0-17.13 9.9-17.13 22 0 11.63 6.76 20 16.51 20m35.84-28.61s1.1-6.6 6.29-6.6c3.77 0 6.13 3.77 6.13 3.77l3.3-9.59a5.73 5.73 0 0 0-3.61-1.1c-8.33 0-13.36 10.38-13.36 10.38zm34.9 0s1.1-6.6 6.29-6.6c3.77 0 6.13 3.77 6.13 3.77l3.3-9.59a5.74 5.74 0 0 0-3.62-1.1c-8.33 0-13.36 10.38-13.36 10.38zm23.11 49.52c5.19 0 10.06-2.83 13.52-10.85l7.23-17.13 11.79-27c1.1-2.36 3-3.62 5.82-5l2.67-1.26h-16.67l2.2 1.26c2.52 1.42 3.61 3 2.67 5.35l-11.64 26.64-5.34 12.73c-2.36 5.82-4.87 8.33-9.59 8.33-6.29 0-10.69-4.72-10.69-4.72l3 10.53a13.37 13.37 0 0 0 5 1.1m17-24.36l4.56-8-9.43-22.64c-.94-2.2 0-3.62 1.42-4.72l2-1.57h-17.57l2.2 1.26a8.66 8.66 0 0 1 4.4 5zm-36.16.47c-2-1.41-3.61-3.14-3.61-5.34V48.57L277.6 51.7l2.67 1.89c1.89 1.42 3.46 3.14 3.46 5.35v23.11c0 2.2-1.57 3.93-3.61 5.34l-2.52 1.89h19zm-34.74 0c-2-1.41-3.62-3.14-3.62-5.34V48.57l-12.86 3.13 2.67 1.89c1.89 1.42 3.46 3.14 3.46 5.35v23.11c0 2.2-1.57 3.93-3.62 5.34l-2.51 1.89h19zm-113.34 0c-2-1.41-3.61-3.14-3.61-5.34V0l-13.83 3.14 2.83 2c2.51 1.73 3.93 3.46 3.93 6.44V82c0 2.2-1.57 3.93-3.61 5.34l-2.52 1.89h19.33zm13.52-75.77v75.3c3.14 2 8.33 3.46 13.52 3.46 11.16 0 19.33-11.16 19.33-23.74 0-9.27-5-18.23-14.93-18.23-5 0-9.12 3.61-11.79 6.13v2.83c2.83-2.52 6.29-3.93 9-3.93 7.54 0 9.9 9 9.9 15.88 0 9.9-3.46 18.55-11.32 18.55-3.93 0-6.76-3.14-6.76-3.14V0l-13.68 3.14 2.83 2c2.52 1.73 3.93 3.46 3.93 6.44M110.21 58.9v31l13-3.46-2.67-1.57c-2-1.26-3.46-2.36-3.46-5v-31.3l-13 3.14 2.67 1.89c1.89 1.42 3.46 3.14 3.46 5.35m-8.65 26.88c-3.77 0-6.6-1.89-6.6-6.6V48.57L81.88 51.7l2.67 1.89c1.89 1.42 3.46 3.14 3.46 5.35v21.22c0 6.76 4.72 9.9 9.75 9.9s9.9-3.14 12.58-5.5V82.2a15.11 15.11 0 0 1-8.8 3.62m-33.48-3.77l-.63-61.62c0-2.67 1.89-4.72 4.87-6.29l4.09-2.2H60.05l-21.38 60-20.59-60H.94l3.77 2.2c2.83 1.57 4.56 3.62 4.56 6.29l-1.1 58a9.67 9.67 0 0 1-4.09 7.39l-4.09 3.46h20.43l-4.24-3.46c-2.51-2.2-3.93-4.4-3.93-7.39l.94-53.29L36.47 88.7l22.95-63.51.47 56.9c0 2.2-1.89 3.93-4.4 5.34l-3.46 1.89h23.74l-3.46-1.89c-2.52-1.41-4.24-3.14-4.24-5.34"/></svg>