<svg xmlns="http://www.w3.org/2000/svg" fill="none" viewBox="0 0 140 31" height="30" class="cw"><path fill="#515151" d="M23.572 27.07h-1.755v-8.796c0-2.724-.674-4.791-2-6.146-1.331-1.355-3.31-2.043-5.883-2.043-1.903 0-3.507.386-4.76 1.144-.734.446-1.351 1-1.836 1.65v-1.116c0-.586-.477-1.064-1.063-1.064H2.013c-.586 0-1.063.478-1.063 1.064v1.095c0 .586.477 1.063 1.063 1.063h1.755v13.152H2.013c-.586 0-1.063.478-1.063 1.064v1.095c0 .586.477 1.064 1.063 1.064h7.305c.586 0 1.063-.478 1.063-1.064v-1.095c0-.284-.109-.551-.312-.751-.2-.2-.467-.313-.751-.313H7.489v-7.715c0-1.888.488-3.345 1.453-4.335.962-.986 2.38-1.488 4.216-1.488 1.628 0 2.87.425 3.692 1.257.825.835 1.243 2.176 1.243 3.987v8.294h-1.825c-.587 0-1.064.478-1.064 1.064v1.095c0 .586.477 1.064 1.064 1.064h7.304c.586 0 1.064-.478 1.064-1.064v-1.095c0-.586-.478-1.064-1.064-1.064zM41.627 11.2c-1.34-.744-2.934-1.12-4.728-1.12-1.927 0-3.647.425-5.117 1.257-1.478.839-2.636 2.05-3.443 3.605-.804 1.544-1.215 3.405-1.215 5.532 0 1.997.414 3.808 1.232 5.377a9 9 0 0 0 3.598 3.72c1.558.885 3.482 1.334 5.714 1.334 1.787 0 3.398-.322 4.784-.954 1.113-.51 2.032-1.13 2.734-1.847.39-.4.39-1.06-.003-1.47l-.79-.822a1.057 1.057 0 0 0-1.492-.038c-.431.41-.979.783-1.628 1.098-.906.44-2.043.664-3.377.664-1.506 0-2.797-.306-3.836-.906a5.84 5.84 0 0 1-2.348-2.457c-.397-.782-.65-1.674-.745-2.65h13.82c.558 0 1.01-.417 1.056-.972l.014-.151c.028-.337.039-.618.039-.856 0-1.973-.376-3.686-1.117-5.09-.747-1.414-1.807-2.51-3.155-3.257zM31.02 18.498c.116-.73.337-1.41.656-2.028a5.7 5.7 0 0 1 2.085-2.271c.885-.544 1.941-.822 3.135-.822s2.113.264 2.896.78c.782.52 1.397 1.242 1.818 2.148.309.66.509 1.4.593 2.197H31.017zm68.961-7.096c-1.432-.878-3.152-1.32-5.107-1.32-1.797 0-3.411.41-4.794 1.221a7.4 7.4 0 0 0-2.149 1.878V1.974c0-.586-.477-1.064-1.063-1.064h-4.532c-.586 0-1.063.478-1.063 1.064v1.095c0 .586.477 1.063 1.063 1.063h1.833v22.942h-1.755c-.587 0-1.064.477-1.064 1.063v1.095c0 .586.477 1.064 1.064 1.064h4.3c.586 0 1.063-.477 1.063-1.064v-1.505a7.15 7.15 0 0 0 2.17 1.944c1.393.821 3.025 1.24 4.85 1.24 1.955 0 3.686-.45 5.146-1.338s2.608-2.13 3.418-3.696c.804-1.559 1.215-3.373 1.215-5.395s-.407-3.84-1.215-5.395c-.81-1.565-1.944-2.8-3.376-3.675zm.755 9.073c0 1.383-.267 2.615-.797 3.66a5.93 5.93 0 0 1-2.24 2.44c-.961.586-2.12.881-3.446.881s-2.492-.298-3.468-.88a5.9 5.9 0 0 1-2.253-2.44c-.527-1.046-.797-2.275-.797-3.661s.267-2.615.797-3.661a5.77 5.77 0 0 1 2.253-2.418c.976-.573 2.145-.864 3.468-.864s2.485.291 3.447.864a5.84 5.84 0 0 1 2.236 2.418c.526 1.046.796 2.278.796 3.66zm15.784 6.595h-1.755V11.763c0-.586-.477-1.064-1.063-1.064h-4.416c-.586 0-1.063.478-1.063 1.064v1.095c0 .586.477 1.063 1.063 1.063h1.755v13.152h-1.755c-.586 0-1.063.478-1.063 1.064v1.095c0 .586.477 1.064 1.063 1.064h7.234c.586 0 1.064-.478 1.064-1.064v-1.095c0-.586-.478-1.064-1.064-1.064zm21.601-12.611c-.744-1.411-1.808-2.507-3.156-3.258-1.34-.744-2.934-1.12-4.727-1.12-1.927 0-3.647.425-5.118 1.257-1.478.839-2.636 2.05-3.443 3.605-.804 1.544-1.215 3.405-1.215 5.532 0 1.997.414 3.808 1.232 5.377a9 9 0 0 0 3.598 3.72c1.558.885 3.482 1.334 5.714 1.334 1.787 0 3.398-.322 4.784-.954 1.113-.51 2.033-1.13 2.735-1.847.389-.4.389-1.06-.004-1.47l-.79-.822a1.05 1.05 0 0 0-.74-.326h-.028c-.274 0-.53.102-.723.288-.432.414-.98.783-1.629 1.095-.906.439-2.039.663-3.377.663-1.505 0-2.797-.305-3.84-.905-1.035-.597-1.825-1.422-2.348-2.457-.396-.783-.646-1.675-.744-2.65h13.819c.558 0 1.011-.418 1.06-.973l.011-.147c.028-.337.038-.618.038-.856 0-1.973-.375-3.686-1.116-5.09zm-13.763 4.04a6.7 6.7 0 0 1 .657-2.03 5.7 5.7 0 0 1 2.085-2.27c.884-.544 1.941-.822 3.134-.822s2.113.264 2.896.78c.782.52 1.393 1.242 1.818 2.148.309.66.509 1.4.593 2.193h-11.186zm-12.457-12.44a2.577 2.577 0 0 0 2.573-2.573c0-1.418-1.155-2.572-2.573-2.572s-2.573 1.154-2.573 2.572a2.577 2.577 0 0 0 2.573 2.573M78.69 10.7h-5.834c-.586 0-1.064.478-1.064 1.064v1.056c0 .586.478 1.064 1.064 1.064h.884L69.68 25.3l-3.837-9.502a2.03 2.03 0 0 0-1.867-1.235h-.004a2.02 2.02 0 0 0-1.867 1.235l-3.837 9.502-4.06-11.418h.884c.586 0 1.063-.478 1.063-1.064v-1.056c0-.586-.477-1.064-1.063-1.064h-5.834c-.586 0-1.063.478-1.063 1.064v1.095c0 .586.477 1.063 1.063 1.063h1.13l5.799 15.676c.154.414.554.695.997.695h1.93c.421 0 .8-.25.969-.632l3.893-9.192 3.892 9.192c.169.383.551.632.969.632h1.93c.443 0 .843-.277.997-.695l5.799-15.676h1.13c.586 0 1.064-.477 1.064-1.063v-1.095c0-.586-.478-1.064-1.064-1.064z"></path></svg>