<svg xmlns="http://www.w3.org/2000/svg" fill="none" viewBox="0 0 83 30">
  <path fill="currentColor" d="M0 15C0 5.985 7.293 0 15.555 0c8.26 0 15.338 5.946 15.338 15 0 9.056-7.186 15-15.448 15C7.185 30 0 24.054 0 15Zm26.862 0c0-6.063-4.645-11.072-11.307-11.072-6.663 0-11.522 5.009-11.522 11.073s4.752 11.073 11.414 11.073c6.663 0 11.415-5.01 11.415-11.073ZM41.224 16.707h-1.703V7.805h-3.88V29.31h3.88V18.566l1.768-.013L51.723 29.76l3.847-1.157L44.71 17.604l9.545-8.938-3.85-1.291-9.178 9.332h-.002ZM72.264 7.805h-4.656l-9.905 20.963 3.947.99 3.149-7.106h10.18l3.072 7.106 3.955-.622-9.692-21.33h-.046l-.004-.001Zm-2.297 3.026 4.172 9.903h-8.5l4.31-9.903h.018Z"/>
</svg>