<svg xmlns="http://www.w3.org/2000/svg" viewBox="20 205 460 90" width="460" height="90">
<g fill="#1C1B19">
  <path d="M121.665,258.611h-21.479l10.744-28.495L121.665,258.611z M120.925,215.652c-2.039-5.527-8.139-8.354-13.666-6.307
		c-2.851,1.043-5.137,3.281-6.252,6.124l-28.018,74.384h15.482l6.363-16.852h32.263l6.427,16.852h15.49L120.925,215.652z"/>
  <path d="M267.55,264.427c-3.99,0-7.207-3.225-7.207-7.207c0-3.99,3.217-7.207,7.207-7.207h38.562
		c0,22.809-18.492,41.309-41.317,41.309c-22.825,0-41.31-18.5-41.31-41.325c0-22.825,18.493-41.317,41.31-41.317
		c17.266,0,32.692,10.72,38.713,26.895h-16.032c-7.98-12.52-24.609-16.223-37.128-8.227c-12.535,7.964-16.215,24.593-8.243,37.112
		c7.98,12.535,24.593,16.215,37.129,8.243c3.313-2.11,6.132-4.914,8.242-8.243L267.55,264.427z"/>
  <path d="M216.679,282.274v0.406c0,4.763-3.846,8.617-8.609,8.617c-2.692-0.032-5.232-1.306-6.897-3.441l-34.253-51.949v53.933
		h-14.423v-72.21c0-4.97,4.013-8.967,8.983-8.952c2.995,0,5.774,1.489,7.431,3.974l33.377,50.771v-53.598h14.423L216.679,282.274z"/>
  <path d="M51.194,258.617H39.431v-34.444h11.763c9.509,0,17.218,7.709,17.218,17.218C68.412,250.9,60.703,258.617,51.194,258.617z
		 M51.194,209.814H25v80.031h14.431v-16.836h11.763c17.449,0,31.593-14.152,31.593-31.601
		C82.787,223.958,68.643,209.814,51.194,209.814z"/>
  <path d="M347.677,258.611h-21.471l10.744-28.495L347.677,258.611z M346.992,215.652c-2.031-5.527-8.147-8.354-13.659-6.307
		c-2.867,1.043-5.145,3.281-6.244,6.124l-28.074,74.384h15.474l6.363-16.852h32.358l6.339,16.852h15.506L346.992,215.652z"/>
  <path d="M394.24,209.814h-14.438v80.015h14.438V209.814z"/>
  <path d="M447.803,258.611h-21.495l10.759-28.495L447.803,258.611z M447.046,215.652c-2.022-5.527-8.139-8.354-13.666-6.307
		c-2.859,1.043-5.145,3.281-6.236,6.124l-28.034,74.384h15.41l6.356-16.852h32.358l6.355,16.852H475L447.046,215.652z"/>
</g>
</svg>