<svg viewBox="0 0 380.51 157.32" xmlns="http://www.w3.org/2000/svg" data-name="Layer 2" id="Layer_2">
  <defs>
    <style>
      .cls-1 {
        fill: #000;
      }
    </style>
  </defs>
  <g data-name="Layer 1" id="Layer_1-2">
    <g>
      <polygon points="379.22 83.34 379.22 68.62 339.79 68.62 339.79 49.36 369.46 49.36 369.46 34.79 339.79 34.79 339.79 14.78 376.79 14.78 376.79 0 323.5 0 323.5 83.34 379.22 83.34" class="cls-1"></polygon>
      <path d="M268.35,53.13c3.72-1.13,6.96-2.75,9.6-4.96,2.7-2.21,4.75-5.02,6.2-8.47,1.46-3.45,2.16-7.39,2.16-11.92,0-4.1-.59-7.77-1.73-11.11-1.13-3.34-2.86-6.26-5.18-8.79-2.27-2.54-5.34-4.48-9.06-5.83-3.78-1.35-8.09-2.05-13.05-2.05h-35.06v40.24h-8.15v14.62h8.15v28.48h16.29v-28.54h9.5l18.71,28.54h18.45l-19.41-29.54c.88-.2,1.74-.42,2.58-.67ZM238.52,14.67h18.02c7.07,0,12.78,5.72,12.78,12.78s-5.72,12.78-12.78,12.78h-18.02V14.67Z" class="cls-1"></path>
      <path d="M127.92,58.58c-1.29-3.13-1.94-6.74-1.94-10.79V0h-16.56v48.87c0,5.61.81,10.68,2.43,15.1,1.62,4.48,3.88,8.2,6.85,11.17,2.97,2.97,6.47,5.23,10.63,6.8,4.15,1.56,8.74,2.37,13.7,2.37,7.07,0,13.16-1.46,18.23-4.37,5.12-2.91,8.95-7.01,11.65-12.3,2.64-5.29,3.99-11.6,3.99-18.77V0h-16.51v47.79c0,6.53-1.62,11.71-4.8,15.43-3.18,3.78-7.39,5.66-12.57,5.66-3.56,0-6.64-.92-9.28-2.81-2.59-1.83-4.53-4.37-5.83-7.5Z" class="cls-1"></path>
      <path d="M8.15,40.24H0v14.62h8.15v28.48h16.29v-28.54h17.32c4.64,0,8.79-.54,12.51-1.67,3.72-1.13,6.96-2.75,9.6-4.96,2.7-2.21,4.75-5.02,6.2-8.47,1.46-3.45,2.16-7.39,2.16-11.92,0-4.1-.59-7.77-1.73-11.11-1.13-3.34-2.86-6.26-5.18-8.79-2.27-2.54-5.34-4.48-9.06-5.83C52.54.7,48.23,0,43.26,0H8.15v40.24ZM42.45,14.67c7.07,0,12.78,5.72,12.78,12.78s-5.72,12.78-12.78,12.78h-18.07V14.67h18.07Z" class="cls-1"></path>
      <g>
        <path d="M8.13,112.74h26.48v3.25H11.69v17.36h19.05v3.25H11.69v17.23h24.23v3.25H8.13v-44.34Z" class="cls-1"></path>
        <path d="M58.02,112.74h3.56v41.09h23.23v3.25h-26.79v-44.34Z" class="cls-1"></path>
        <path d="M105.72,112.74h26.48v3.25h-22.92v17.36h19.05v3.25h-19.05v17.23h24.23v3.25h-27.79v-44.34Z" class="cls-1"></path>
        <path d="M152.3,135.09c0-12.61,7.68-22.67,21.79-22.67,6.24,0,12.43,2.56,17.11,8.37l-2.69,2.31c-4.06-5.12-9.05-7.31-14.42-7.31-11.49,0-18.11,8.24-18.11,19.29,0,11.99,7.93,18.86,18.17,18.86,6.43,0,11.05-3,14.42-7.18l2.69,2.25c-3.87,4.81-9.31,8.31-17.11,8.31-11.93,0-21.86-7.81-21.86-22.23Z" class="cls-1"></path>
        <path d="M222.73,115.98h-13.86v-3.25h31.47v3.25h-14.05v41.09h-3.56v-41.09Z" class="cls-1"></path>
        <path d="M261.25,112.74h15.17c9.93,0,14.24,5.62,14.24,13.11,0,7.93-4.68,12.05-12.11,12.99l12.99,18.23h-4.31l-12.61-17.92h-9.8v17.92h-3.56v-44.34ZM275.17,135.84c8.49,0,11.8-4.31,11.8-9.99,0-6.56-4.18-9.87-10.87-9.87h-11.3v19.86h10.37Z" class="cls-1"></path>
        <path d="M314.57,112.74h3.56v44.34h-3.56v-44.34Z" class="cls-1"></path>
        <path d="M341.54,135.09c0-12.61,7.68-22.67,21.79-22.67,6.24,0,12.43,2.56,17.11,8.37l-2.69,2.31c-4.06-5.12-9.05-7.31-14.42-7.31-11.49,0-18.11,8.24-18.11,19.29,0,11.99,7.93,18.86,18.17,18.86,6.43,0,11.05-3,14.42-7.18l2.69,2.25c-3.87,4.81-9.31,8.31-17.11,8.31-11.93,0-21.86-7.81-21.86-22.23Z" class="cls-1"></path>
      </g>
    </g>
  </g>
</svg>