<svg viewBox="0 0 640.33 102.89" xmlns="http://www.w3.org/2000/svg" data-name="Layer 1" id="Layer_1">
  <defs>
    <style>
      .cls-1 {
        fill: #231f20;
      }
    </style>
  </defs>
  <path d="M255.66,22.84v7.57h.23c1.99-3.21,4.51-5.54,7.57-7,3.06-1.45,6.42-2.18,10.09-2.18,4.66,0,8.68.88,12.04,2.64,3.36,1.76,6.15,4.09,8.37,7,2.22,2.91,3.86,6.29,4.93,10.15,1.07,3.86,1.61,7.9,1.61,12.1,0,3.98-.54,7.8-1.61,11.47-1.07,3.67-2.7,6.92-4.87,9.75-2.18,2.83-4.89,5.08-8.14,6.77-3.25,1.68-7.05,2.52-11.41,2.52-3.67,0-7.05-.75-10.15-2.24-3.1-1.49-5.64-3.69-7.63-6.6h-.23v28.1h-16.29V22.84h15.48ZM276.82,69.86c1.8-1.07,3.25-2.47,4.36-4.19,1.11-1.72,1.89-3.73,2.35-6.02.46-2.29.69-4.62.69-7s-.25-4.7-.75-7c-.5-2.29-1.32-4.34-2.47-6.14-1.15-1.8-2.62-3.25-4.42-4.36-1.8-1.11-4-1.66-6.59-1.66s-4.91.56-6.71,1.66c-1.8,1.11-3.25,2.54-4.36,4.3-1.11,1.76-1.89,3.79-2.35,6.08-.46,2.29-.69,4.67-.69,7.11s.25,4.7.75,7c.5,2.29,1.3,4.3,2.41,6.02,1.11,1.72,2.58,3.12,4.42,4.19,1.83,1.07,4.05,1.6,6.65,1.6s4.91-.53,6.71-1.6ZM308.3,39.64c1.45-3.86,3.52-7.15,6.19-9.86,2.68-2.71,5.89-4.82,9.63-6.31,3.75-1.49,7.95-2.24,12.62-2.24s8.89.75,12.67,2.24c3.79,1.49,7.01,3.6,9.69,6.31,2.67,2.72,4.74,6,6.19,9.86,1.45,3.86,2.18,8.16,2.18,12.9s-.73,9.02-2.18,12.85c-1.45,3.82-3.52,7.09-6.19,9.81-2.68,2.72-5.91,4.8-9.69,6.25-3.79,1.45-8.01,2.18-12.67,2.18s-8.87-.73-12.62-2.18c-3.75-1.45-6.96-3.53-9.63-6.25-2.68-2.71-4.74-5.98-6.19-9.81-1.45-3.82-2.18-8.1-2.18-12.85s.73-9.04,2.18-12.9ZM323.1,59.48c.46,2.26,1.24,4.28,2.35,6.08,1.11,1.8,2.58,3.23,4.42,4.3,1.83,1.07,4.13,1.6,6.88,1.6s5.07-.53,6.94-1.6c1.87-1.07,3.37-2.5,4.47-4.3,1.11-1.8,1.89-3.82,2.35-6.08.46-2.25.69-4.57.69-6.94s-.23-4.7-.69-7c-.46-2.29-1.24-4.32-2.35-6.08-1.11-1.76-2.6-3.19-4.47-4.3-1.87-1.11-4.19-1.66-6.94-1.66s-5.04.56-6.88,1.66c-1.83,1.11-3.31,2.54-4.42,4.3-1.11,1.76-1.89,3.79-2.35,6.08-.46,2.29-.69,4.63-.69,7s.23,4.69.69,6.94ZM391.34,22.84v11.01h.23c.77-1.84,1.8-3.54,3.1-5.1,1.3-1.57,2.79-2.91,4.47-4.02,1.68-1.11,3.48-1.97,5.39-2.58,1.91-.61,3.9-.92,5.97-.92,1.07,0,2.25.19,3.55.57v15.14c-.76-.15-1.68-.29-2.75-.4-1.07-.12-2.1-.17-3.1-.17-2.98,0-5.5.5-7.57,1.49-2.07.99-3.73,2.35-4.99,4.07-1.26,1.72-2.16,3.73-2.7,6.02-.54,2.29-.8,4.78-.8,7.46v26.72h-16.29V22.84h15.48ZM457.63,22.84v10.9h-11.93v29.36c0,2.75.46,4.59,1.37,5.5.92.92,2.75,1.38,5.5,1.38.92,0,1.79-.04,2.64-.11.84-.08,1.65-.19,2.41-.35v12.62c-1.38.23-2.91.38-4.59.46-1.68.08-3.33.12-4.93.12-2.52,0-4.91-.17-7.17-.52-2.26-.34-4.24-1.01-5.96-2.01-1.72-.99-3.08-2.41-4.07-4.24-1-1.83-1.49-4.24-1.49-7.22v-34.98h-9.86v-10.9h9.86V5.06h16.29v17.78h11.93ZM483.2,22.84v11.01h.23c.76-1.84,1.79-3.54,3.1-5.1,1.3-1.57,2.79-2.91,4.47-4.02,1.68-1.11,3.48-1.97,5.39-2.58,1.91-.61,3.9-.92,5.96-.92,1.07,0,2.25.19,3.56.57v15.14c-.77-.15-1.68-.29-2.75-.4-1.07-.12-2.11-.17-3.1-.17-2.98,0-5.5.5-7.57,1.49-2.07.99-3.73,2.35-4.99,4.07-1.26,1.72-2.16,3.73-2.7,6.02-.53,2.29-.8,4.78-.8,7.46v26.72h-16.29V22.84h15.48ZM509.47,41.08c.23-3.82,1.18-7,2.87-9.52,1.68-2.52,3.82-4.55,6.42-6.08,2.6-1.53,5.52-2.62,8.77-3.27,3.25-.65,6.52-.98,9.81-.98,2.98,0,6,.21,9.06.63,3.06.42,5.85,1.24,8.37,2.46,2.52,1.22,4.59,2.92,6.19,5.1,1.61,2.18,2.41,5.07,2.41,8.66v30.85c0,2.68.15,5.24.46,7.68.3,2.45.84,4.28,1.61,5.5h-16.52c-.31-.92-.55-1.85-.74-2.81-.19-.96-.33-1.93-.4-2.92-2.6,2.68-5.66,4.55-9.18,5.62-3.52,1.07-7.11,1.61-10.78,1.61-2.83,0-5.47-.34-7.91-1.03-2.45-.69-4.59-1.76-6.42-3.21-1.84-1.45-3.27-3.29-4.3-5.5-1.03-2.22-1.55-4.86-1.55-7.91,0-3.36.59-6.14,1.78-8.32,1.19-2.18,2.71-3.92,4.59-5.22,1.87-1.3,4.01-2.27,6.42-2.92,2.41-.65,4.83-1.16,7.28-1.55,2.45-.38,4.86-.69,7.23-.92,2.37-.23,4.47-.57,6.31-1.03,1.83-.46,3.29-1.13,4.36-2.01,1.07-.88,1.57-2.16,1.49-3.84,0-1.76-.29-3.15-.86-4.19-.58-1.03-1.34-1.84-2.29-2.41s-2.06-.95-3.33-1.15c-1.26-.19-2.62-.29-4.07-.29-3.21,0-5.74.69-7.57,2.07-1.84,1.38-2.91,3.67-3.21,6.88h-16.29ZM547.08,53.12c-.69.61-1.54,1.09-2.58,1.43-1.03.34-2.14.63-3.33.86-1.18.23-2.43.42-3.73.57-1.3.15-2.6.34-3.9.57-1.22.23-2.43.54-3.61.92-1.19.38-2.22.9-3.1,1.55-.88.65-1.59,1.47-2.12,2.47-.54.99-.8,2.26-.8,3.79s.26,2.68.8,3.67c.53.99,1.26,1.78,2.18,2.35.92.57,1.99.97,3.21,1.2,1.22.23,2.48.34,3.79.34,3.21,0,5.69-.53,7.46-1.61,1.76-1.07,3.06-2.35,3.9-3.84.84-1.49,1.36-3,1.55-4.53.19-1.53.29-2.75.29-3.67v-6.08ZM576.33,13.66V.25h16.28v13.42h-16.28ZM592.61,22.84v59.3h-16.28V22.84h16.28ZM640.33,22.84v10.9h-11.93v29.36c0,2.75.46,4.59,1.38,5.5.92.92,2.75,1.38,5.5,1.38.92,0,1.79-.04,2.64-.11.84-.08,1.64-.19,2.41-.35v12.62c-1.38.23-2.91.38-4.59.46-1.68.08-3.33.12-4.93.12-2.52,0-4.91-.17-7.17-.52-2.25-.34-4.24-1.01-5.96-2.01-1.72-.99-3.08-2.41-4.07-4.24-1-1.83-1.49-4.24-1.49-7.22v-34.98h-9.86v-10.9h9.86V5.06h16.29v17.78h11.93Z" class="cls-1"></path>
  <g>
    <path d="M49.09,51.21c-1.76-1.26-3.77-2.27-6.02-3.04-2.26-.76-4.57-1.41-6.94-1.95-2.29-.53-4.55-1.03-6.77-1.49-2.22-.46-4.19-.97-5.91-1.55-1.72-.57-3.12-1.32-4.19-2.24-1.07-.92-1.61-2.1-1.61-3.56,0-1.22.3-2.2.92-2.92.61-.73,1.36-1.28,2.24-1.66.88-.38,1.85-.63,2.92-.75,1.07-.11,2.06-.17,2.98-.17,2.9,0,5.43.56,7.57,1.66,2.14,1.11,3.33,3.23,3.56,6.36h15.48c-.31-3.67-1.24-6.71-2.81-9.12-1.57-2.41-3.54-4.34-5.91-5.79-2.37-1.45-5.07-2.48-8.09-3.1-3.02-.61-6.14-.92-9.35-.92s-6.35.29-9.41.86c-3.06.57-5.81,1.57-8.26,2.98-2.45,1.42-4.42,3.35-5.91,5.79-1.49,2.45-2.24,5.58-2.24,9.41,0,2.6.53,4.8,1.61,6.59,1.07,1.8,2.48,3.29,4.24,4.47,1.76,1.19,3.76,2.14,6.02,2.87,2.25.73,4.57,1.36,6.94,1.89,5.81,1.22,10.34,2.45,13.59,3.67,3.25,1.22,4.87,3.06,4.87,5.5,0,1.45-.34,2.66-1.03,3.61-.69.96-1.55,1.72-2.58,2.29-1.03.57-2.18.99-3.44,1.26-1.26.27-2.47.4-3.61.4-1.61,0-3.15-.19-4.65-.57-1.49-.38-2.81-.97-3.96-1.78-1.15-.8-2.08-1.84-2.81-3.1-.73-1.26-1.09-2.77-1.09-4.53H0c.15,3.98,1.05,7.28,2.69,9.92,1.64,2.64,3.75,4.76,6.31,6.36,2.56,1.61,5.49,2.75,8.77,3.44,3.29.69,6.65,1.03,10.09,1.03s6.67-.33,9.92-.98c3.25-.65,6.14-1.78,8.66-3.38,2.52-1.6,4.57-3.73,6.14-6.37,1.57-2.64,2.35-5.91,2.35-9.81,0-2.75-.54-5.06-1.61-6.94-1.07-1.87-2.49-3.44-4.24-4.7Z" class="cls-1"></path>
    <path d="M112.11,31.77c-2.41-3.29-5.49-5.91-9.23-7.86-3.75-1.95-8.14-2.92-13.19-2.92-4.51,0-8.62.8-12.33,2.41-3.71,1.6-6.9,3.8-9.58,6.59-2.68,2.79-4.74,6.1-6.19,9.92-1.45,3.82-2.18,7.95-2.18,12.39s.71,8.79,2.12,12.62c1.41,3.82,3.42,7.11,6.02,9.86,2.6,2.75,5.77,4.88,9.52,6.37,3.75,1.49,7.95,2.24,12.62,2.24,6.73,0,12.46-1.53,17.2-4.59,4.74-3.06,8.26-8.14,10.55-15.25h-14.34c-.54,1.83-1.99,3.58-4.36,5.22-2.37,1.64-5.2,2.46-8.49,2.46-4.59,0-8.11-1.18-10.55-3.55-2.45-2.37-3.78-6.19-4.01-11.47h42.78c.31-4.59-.08-8.98-1.15-13.19-1.07-4.2-2.81-7.95-5.22-11.24ZM75.69,45.88c.08-1.15.32-2.45.75-3.9.42-1.45,1.15-2.83,2.18-4.13,1.03-1.3,2.41-2.39,4.13-3.27,1.72-.88,3.88-1.32,6.48-1.32,3.97,0,6.94,1.07,8.89,3.21,1.95,2.14,3.31,5.28,4.07,9.41h-26.49Z" class="cls-1"></path>
    <rect height="81.89" width="16.29" x="126.39" class="cls-1"></rect>
    <path d="M178.91,0c-6.65,0-11.62,1.68-14.91,5.05-3.29,3.37-4.93,7.68-4.93,12.96v4.59h-9.75v10.9h9.75v48.4h16.29v-48.4h11.24v-10.9h-11.24v-3.55c0-2.45.48-4.19,1.43-5.22.95-1.03,2.54-1.55,4.76-1.55,2.06,0,4.05.11,5.96.34V.46c-1.38-.08-2.79-.17-4.24-.29-1.45-.11-2.91-.17-4.36-.17Z" class="cls-1"></path>
    <rect height="13.99" width="34.52" y="43.58" x="193.48" class="cls-1"></rect>
  </g>
</svg>