<svg xmlns="http://www.w3.org/2000/svg" fill="none" viewBox="0 0 138 28"><path fill="currentColor" d="M4.631 2.411c.289 0 .535.065.781.204.178.106.51.366 1.027 1.018l.364.456L8.78 2.672l-.356-.465C7.796 1.393 7.202.84 6.608.521 5.438-.106 3.987-.122 2.833.472c-.569.294-1.019.7-1.341 1.214a3.217 3.217 0 0 0-.475 1.71c0 .783.263 1.508.78 2.16.297.39.976.96 2.07 1.742C4.844 8 5.523 8.594 5.88 9.066c.212.285.314.562.314.83 0 .245-.068.481-.204.693-.136.22-.33.391-.602.53a1.953 1.953 0 0 1-.908.212c-.739 0-1.434-.563-2.07-1.662l-.298-.521-2.095 1.197.28.489c.568.985 1.213 1.702 1.909 2.134.712.44 1.518.668 2.392.668 1.146 0 2.13-.375 2.936-1.108.806-.75 1.214-1.637 1.214-2.656 0-.708-.238-1.417-.705-2.093-.45-.66-1.23-1.368-2.375-2.175-1.112-.782-1.46-1.05-1.545-1.132-.305-.293-.44-.497-.492-.62a1.227 1.227 0 0 1-.119-.512c0-.261.094-.473.297-.652.204-.187.467-.277.823-.277ZM27.017.032h-3.615l-4.353 3.87V.031h-2.596v13.604h2.596V8.773l4.828 4.863h3.488l-7.348-7.413 7-6.19ZM36.393.032h-2.596v13.604h2.596V.032ZM55.649 13.636V.032h-2.546v8.504L45.314.032H44.11v13.604h2.614v-8.39l7.72 8.39h1.206ZM72.275 8.536 64.486.032h-1.205v13.604h2.614v-8.39l7.72 8.39h1.206V.032h-2.546v8.504ZM87.763 4.602 84.776.032h-2.995l4.735 7.25v6.354h2.545V7.282l4.641-7.25h-2.995l-2.944 4.57ZM108.395.798c-1.009-.489-2.545-.733-4.632-.733h-3.216v13.53h3.267c1.849 0 3.147-.114 3.894-.334a5.336 5.336 0 0 0 2.087-1.197c.645-.57 1.146-1.296 1.511-2.175.365-.88.551-1.833.551-2.876 0-1.466-.322-2.753-.976-3.845-.653-1.091-1.476-1.881-2.486-2.37Zm.187 8.52c-.356.636-.815 1.092-1.375 1.36-.56.27-1.459.408-2.706.408h-1.264V2.549h.924c1.689 0 2.911.359 3.674 1.067.849.79 1.273 1.907 1.273 3.34.009.937-.17 1.727-.526 2.362ZM121.308.073h-2.699v13.53h2.699V.073ZM136.844 1.8a3.422 3.422 0 0 0-1.629-1.328c-.687-.269-1.816-.407-3.377-.407h-2.885v13.53h2.715V7.868c1.383 0 2.342-.065 2.868-.211.891-.245 1.604-.676 2.121-1.304.526-.627.781-1.409.781-2.354 0-.855-.195-1.588-.594-2.199Zm-2.265 2.965a1.259 1.259 0 0 1-.628.456c-.263.098-.738.139-1.417.139h-.866V2.582h.764c.84 0 1.417.09 1.731.269.424.244.645.619.645 1.148 0 .294-.077.554-.229.766ZM54.913 22.482h-.577v4.57h2.155v-.562h-1.578v-4.008ZM59.593 22.335c-.73 0-1.357.236-1.875.709-.518.464-.78 1.042-.78 1.694 0 .684.254 1.27.763 1.743.51.48 1.137.725 1.858.725.739 0 1.366-.236 1.867-.717a2.31 2.31 0 0 0 .764-1.751c0-.652-.263-1.222-.773-1.694-.492-.465-1.111-.709-1.824-.709Zm1.4 3.73c-.382.367-.84.546-1.374.546-.569 0-1.06-.179-1.46-.529a1.697 1.697 0 0 1-.594-1.312c0-.505.196-.944.577-1.31a2 2 0 0 1 1.392-.547c.568 0 1.052.18 1.442.538.39.35.586.798.586 1.311.008.505-.178.945-.569 1.304ZM66.674 25.87l-3.572-3.527v4.709h.585v-3.34l3.572 3.51v-4.74h-.585v3.388ZM69.465 22.482h-1.137v4.57h1.146c.882 0 1.56-.228 2.01-.693.459-.464.696-.994.696-1.596 0-.587-.229-1.124-.67-1.589-.45-.456-1.137-.692-2.045-.692Zm1.9 3.079a1.58 1.58 0 0 1-.542.578c-.23.147-.467.245-.721.285-.247.041-.62.066-1.112.066h-.076v-3.462h.373c.492 0 .9.049 1.188.146.297.098.551.302.763.595.213.293.323.627.323.986 0 .301-.068.57-.195.806ZM75.46 22.335c-.721 0-1.358.236-1.867.709-.517.464-.78 1.042-.78 1.694 0 .684.254 1.27.763 1.743.51.48 1.137.725 1.858.725.739 0 1.366-.236 1.867-.717a2.34 2.34 0 0 0 .764-1.751c0-.652-.263-1.222-.772-1.694a2.636 2.636 0 0 0-1.833-.709Zm1.4 3.73a1.925 1.925 0 0 1-1.375.546c-.577 0-1.06-.179-1.46-.529a1.697 1.697 0 0 1-.593-1.312c0-.505.195-.944.577-1.31a2 2 0 0 1 1.391-.547c.569 0 1.052.18 1.443.538.39.35.585.798.585 1.311.009.505-.186.945-.568 1.304ZM82.525 25.87l-3.572-3.519v4.7h.586v-3.34l3.572 3.511v-4.74h-.586v3.388Z"/></svg>