<svg
      class="block tablet:h-[26px] max-w-full"
      role="presentation"
      width="184"
      height="30"
      viewBox="0 0 184 30"
      fill="none"
      xmlns="http://www.w3.org/2000/svg"
    >
      <path fill-rule="evenodd" clip-rule="evenodd" d="M48.6 5.33c.62 0 1.14-.22 1.58-.65.43-.43.65-.97.65-1.6s-.22-1.17-.65-1.6-.96-.65-1.58-.65-1.18.22-1.62.65c-.43.43-.65.97-.65 1.6s.22 1.14.67 1.58c.45.45.98.67 1.6.67M15.05 21.54h-.55l-.04.39c-.28 2.69-.67 4.48-1.18 5.38-.53 1.04-1.46 1.56-2.77 1.56-1.12 0-1.87-.34-2.23-1.02s-.55-2.05-.55-4.11V9.93h6.26v-.65H7.73V0h-.42l-.04.52c-.25 3.22-.88 5.43-1.89 6.64C4.29 8.48 2.49 9.22 0 9.36v.56h4.08v14.99q0 1.395.51 2.52c.34.75.95 1.37 1.83 1.84.88.48 1.86.72 2.92.72 2.35 0 3.97-.91 4.84-2.73.59-1.22.88-2.93.88-5.16v-.56zm21.74 3.99v-9.19c0-1.88-.07-3.16-.21-3.83-.14-.68-.48-1.32-1.01-1.93-1.09-1.24-2.64-1.87-4.63-1.87s-3.84.68-5.3 2.04c-1.04.98-2 2.58-2.9 4.81V0l-.21.04c-1.68.32-4.15.48-7.4.48H15V1c1.93.14 3.1.38 3.49.72.39.33.59 1.28.59 2.84v20.98c0 1.3-.25 2.17-.76 2.6s-1.61.72-3.32.87v.43h11.73l.04-.43c-1.74-.17-2.85-.46-3.32-.87-.48-.4-.72-1.27-.72-2.6v-2.91c0-2.57.12-4.46.38-5.68.42-1.93 1.17-3.54 2.26-4.81 1.26-1.5 2.76-2.25 4.52-2.25 1.62 0 2.61.77 2.97 2.3.11.46.17 1.92.17 4.38v8.97c0 1.3-.25 2.17-.76 2.6s-1.61.72-3.32.87v.43h11.9v-.43c-1.71-.14-2.82-.43-3.32-.87-.51-.43-.76-1.3-.76-2.6zm13.49 0V8.8l-.21.04c-3.36.29-5.82.43-7.36.43h-.17v.48c1.91.14 3.06.39 3.47.74s.61 1.27.61 2.77v12.27c0 1.3-.25 2.17-.76 2.6s-1.61.72-3.32.87v.43h11.82V29c-1.71-.14-2.82-.43-3.32-.87-.51-.43-.76-1.3-.76-2.6m19.39-6.76c-.73-.46-2.21-1.08-4.46-1.87-2.52-.87-4.15-1.56-4.88-2.08s-1.09-1.26-1.09-2.21.4-1.71 1.2-2.36 1.8-.97 3-.97c1.71 0 3.15.63 4.31 1.87 1.16 1.25 1.93 2.98 2.29 5.19h.42V8.97h-.42c-.34 1.01-.66 1.52-.97 1.52-.14 0-.51-.17-1.09-.52a8.7 8.7 0 0 0-4.54-1.26c-1.99 0-3.67.57-5.03 1.71q-2.04 1.71-2.04 4.23c0 1.68.81 3.05 2.44 4.03.87.52 2.34 1.13 4.42 1.82 2.5.84 4.09 1.54 4.79 2.1q1.05.84 1.05 2.58c0 1.16-.47 2.19-1.41 3.01s-2.08 1.24-3.43 1.24c-3.76 0-6.43-2.87-8.03-8.63h-.46v9.06h.46l.34-1.04.21-.61c.2-.55.42-.82.67-.82.14 0 .26.04.38.13l1.43 1c1.4.98 3.06 1.47 4.96 1.47q3.24 0 5.49-1.95t2.25-4.77c0-2.02-.76-3.52-2.27-4.51zM181.89.9c-.56-.57-1.23-.86-2.02-.86s-1.46.29-2.02.86-.83 1.27-.83 2.08.28 1.49.84 2.07q.84.87 2.01.87c.78 0 1.46-.29 2.02-.87s.83-1.27.83-2.07-.28-1.51-.83-2.08m-.26 3.89c-.48.5-1.07.75-1.76.75s-1.27-.25-1.75-.75c-.49-.5-.73-1.1-.73-1.81s.24-1.31.73-1.81c.48-.5 1.07-.75 1.75-.75s1.27.25 1.76.74c.49.5.73 1.1.73 1.82s-.24 1.31-.73 1.81m-.29-1.06v-.07l-.02-.01h.06v.07c0 .52-.18.78-.53.78s-.53-.27-.54-.82c0-.19-.01-.32-.04-.41a.39.39 0 0 0-.24-.28c-.11-.04-.28-.06-.5-.06h-.33v1.12q0 .24.09.3c.06.05.21.08.45.1v.06h-1.42v-.06c.22-.02.36-.06.41-.1s.08-.15.08-.3V1.91c0-.17-.03-.28-.08-.32-.06-.05-.19-.08-.41-.1v-.04h1.31c.87 0 1.3.24 1.3.72 0 .43-.36.67-1.07.74.34.03.58.1.7.21.13.11.2.33.23.64v.19c.02.27.11.4.26.4.19 0 .29-.21.29-.62m-2.12-1.86v1.01h.34c.34 0 .57-.05.71-.15q.21-.15.21-.54c0-.43-.27-.65-.81-.65-.21 0-.34.01-.38.04-.05.02-.07.12-.07.29" fill="currentColor"/><path fill-rule="evenodd" clip-rule="evenodd" d="m160.4 24.23-.163-.257v-.001c-.758-1.2-1.323-2.094-1.687-2.692l-3.62-5.81 2.86-2.47c2.16-1.88 4.26-2.96 6.31-3.25v-.48h-10.89v.48c2.21.32 3.32 1 3.32 2.04 0 .98-1.12 2.43-3.36 4.33l-4.75 4.03V0l-.21.04c-1.68.32-4.15.48-7.4.48h-.13V1c1.93.14 3.1.38 3.49.72.39.33.59 1.28.59 2.84v20.98c0 1.3-.25 2.17-.76 2.6s-1.61.72-3.32.87v.43h11.82v-.43c-1.71-.14-2.82-.43-3.32-.87-.5-.43-.76-1.3-.76-2.6v-4.46l3.78-3.25 4.5 7.19c.76 1.22 1.14 2.05 1.14 2.51s-.22.8-.65 1-1.3.36-2.58.48v.43h11.6v-.43c-1.46-.17-2.48-.5-3.07-.97-.59-.48-1.5-1.74-2.73-3.79zm20.81-5.46c-.73-.46-2.21-1.08-4.46-1.87-2.52-.87-4.15-1.56-4.88-2.08s-1.09-1.26-1.09-2.21.4-1.71 1.2-2.36 1.8-.97 3.01-.97c1.71 0 3.15.63 4.31 1.87 1.16 1.25 1.93 2.98 2.29 5.19h.42V8.97h-.42c-.34 1.01-.66 1.52-.97 1.52-.14 0-.51-.17-1.1-.52a8.66 8.66 0 0 0-4.54-1.26c-1.99 0-3.67.57-5.02 1.71q-2.04 1.71-2.04 4.23c0 1.68.81 3.05 2.44 4.03.87.52 2.34 1.13 4.42 1.82 2.5.84 4.09 1.54 4.8 2.1q1.05.84 1.05 2.58c0 1.16-.47 2.19-1.41 3.01s-2.08 1.24-3.43 1.24c-3.76 0-6.43-2.87-8.03-8.63h-.46v9.06h.46l.34-1.04.21-.61c.2-.55.42-.82.67-.82.14 0 .26.04.38.13l1.43 1c1.4.98 3.05 1.47 4.96 1.47q3.24 0 5.49-1.95t2.25-4.77c0-2.02-.76-3.52-2.27-4.51zM113.86 8.71c2.66 0 5.01 1.07 7.04 3.21s3.05 4.66 3.05 7.46-1.02 5.27-3.05 7.41-4.38 3.21-7.04 3.21-5.01-1.07-7.04-3.21-3.05-4.57-3.05-7.41 1.02-5.32 3.05-7.46 4.38-3.21 7.04-3.21m-.01 20.72c2.1 0 3.6-.77 4.5-2.32q1.35-2.325 1.35-7.74c0-3.61-.45-6.2-1.35-7.76s-2.42-2.34-4.5-2.34-3.57.78-4.48 2.34c-.92 1.56-1.37 4.17-1.37 7.76s.46 6.16 1.37 7.72 2.38 2.34 4.48 2.34m-8.19-20.15h-8.7v.48c1.32.14 2.23.4 2.73.76.51.36.76.96.76 1.8 0 .95-.26 2.15-.8 3.6l-3.57 9.71-4.16-11.92c-.45-1.27-.67-2.05-.67-2.34 0-.49.22-.85.65-1.06.43-.22 1.3-.4 2.58-.54v-.48H84.1v.48c1.15.09 1.95.32 2.42.72.46.39.87 1.21 1.24 2.45l.38 1.3-3.61 11.4-4.37-11.92c-.39-1.07-.59-1.79-.59-2.17 0-.98.95-1.58 2.86-1.78v-.48H72.3v.48c1.29.2 2.14.5 2.55.89s.91 1.37 1.5 2.93l6.08 16.3h1.47l4.74-14.43 5.29 14.43h1.34l5.16-14.04c.92-2.51 1.66-4.09 2.2-4.73s1.56-1.08 3.04-1.34V9.3zm36.19 2.9c0 .72-.22 1.33-.65 1.82l.02-.01c-.44.5-1 .74-1.62.74s-1.15-.22-1.6-.67c-.46-.44-.68-.96-.68-1.62s.33-1.28.97-1.86c.14-.12.21-.23.21-.35 0-.43-.42-.65-1.26-.65s-1.65.32-2.42.95c-.78.64-1.37 1.49-1.79 2.55-.73 1.84-1.1 4.27-1.1 7.29v5.18c0 1.3.27 2.16.82 2.59s1.73.72 3.55.86v.43h-12.11V29c1.71-.15 2.81-.44 3.32-.87s.76-1.3.76-2.6V13.26c0-1.5-.22-2.42-.67-2.77s-1.7-.6-3.74-.74v-.48c1.26 0 2.76-.05 4.5-.17q2.43-.165 3.57-.3v5.33c1.12-3.55 3.09-5.33 5.89-5.33 1.2 0 2.18.31 2.92.93s1.11 1.44 1.11 2.45" fill="currentColor" style="fill:var(--icons,currentColor)"/>
    </svg>