<svg width="100" height="33" viewBox="0 0 100 33" fill="none" xmlns="http://www.w3.org/2000/svg" class="site-logo">
  <title>TOAST</title>
  <path fill-rule="evenodd" clip-rule="evenodd" d="M23.0113 2.7376C21.4131 3.99015 20.3295 6.07875 20.3295 9.48979V23.4929C20.3295 26.9033 21.417 28.9921 23.0176 30.2449C24.6405 31.5153 26.8768 31.9949 29.2992 31.9949C31.7216 31.9949 33.9579 31.5153 35.5808 30.2449C37.1813 28.9921 38.2688 26.9033 38.2688 23.4929V9.48979C38.2688 6.07939 37.1813 3.99063 35.5808 2.73779C33.9579 1.46745 31.7216 0.987855 29.2992 0.987855C26.8678 0.987855 24.6318 1.46757 23.0113 2.7376ZM22.3937 1.96255C24.2652 0.495842 26.7631 0 29.2992 0C31.8269 0 34.3245 0.495964 36.1979 1.96237C38.0937 3.44628 39.2649 5.85544 39.2649 9.48979V23.4929C39.2649 27.1273 38.0937 29.5365 36.1979 31.0204C34.3245 32.4868 31.8269 32.9827 29.2992 32.9827C26.7714 32.9827 24.2738 32.4868 22.4004 31.0204C20.5047 29.5365 19.3335 27.1273 19.3335 23.4929V9.48979C19.3335 5.85608 20.5 3.44675 22.3937 1.96255ZM64.164 2.68499C62.6367 3.80213 61.7312 5.56497 61.7312 8.22933C61.7312 12.9456 64.4168 15.3334 67.254 17.4615C67.4997 17.6458 67.7479 17.829 67.9963 18.0124C69.1648 18.875 70.3348 19.7388 71.2515 20.7187C72.3842 21.9296 73.172 23.3574 73.172 25.2541C73.172 26.2161 72.9676 26.9526 72.4916 27.4423C72.01 27.9378 71.3498 28.079 70.6835 28.079C69.9413 28.079 69.2596 27.9461 68.7919 27.4294C68.3399 26.9301 68.195 26.1856 68.195 25.2541V20.43H61.7139V25.634C61.7139 28.1193 62.7816 29.6774 64.39 30.6416C66.0346 31.6276 68.2827 32.0121 70.6316 32.0121C73.7039 32.0121 75.9429 31.3502 77.4116 30.0658C78.868 28.7921 79.6531 26.8292 79.6531 24.0282C79.6531 19.5134 76.9558 16.8834 74.1157 14.6858C73.7023 14.3658 73.2811 14.0519 72.8644 13.7413C71.8751 13.0039 70.9116 12.2858 70.139 11.5525C69.0287 10.4987 68.195 9.31106 68.195 7.81493C68.195 7.04443 68.2805 6.30776 68.6738 5.76537C69.098 5.1804 69.7843 4.93823 70.6835 4.93823C71.5282 4.93823 72.1985 5.18834 72.6332 5.75452C73.0448 6.29055 73.172 7.02053 73.172 7.81493V11.6549H79.6704V7.31421C79.6704 4.90475 78.6842 3.37005 77.1353 2.41074C75.5498 1.42871 73.3271 1.02239 70.8393 1.02239C67.9958 1.02239 65.7194 1.54724 64.164 2.68499ZM63.5727 1.88999C65.3751 0.571577 67.9018 0.034533 70.8393 0.034533C73.4055 0.034533 75.8474 0.448369 77.663 1.57286C79.5152 2.72006 80.6665 4.57823 80.6665 7.31421V12.6428H73.0497C73.1675 12.7308 73.2866 12.8196 73.407 12.9093C73.8345 13.2278 74.2773 13.5578 74.7285 13.9069C77.6175 16.1425 80.6492 19.0292 80.6492 24.0282C80.6492 27.0115 79.8074 29.2876 78.0704 30.8067C76.3457 32.3151 73.8249 33 70.6316 33C68.2033 33 65.7436 32.6075 63.8746 31.487C61.9694 30.3447 60.7178 28.4668 60.7178 25.634V19.4421H68.258C67.9878 19.2385 67.7104 19.0335 67.428 18.8248C67.1733 18.6367 66.9145 18.4455 66.6531 18.2494C63.7699 16.0868 60.7351 13.4414 60.7351 8.22933C60.7351 5.31661 61.7421 3.22901 63.5727 1.88999ZM69.1911 20.1696V25.2541C69.1911 26.1356 69.3405 26.5567 69.5331 26.7695C69.7102 26.9651 70.0238 27.0912 70.6835 27.0912C71.2288 27.0912 71.5638 26.9734 71.7745 26.7567C71.9909 26.5341 72.1759 26.1052 72.1759 25.2541C72.1759 23.6717 71.5336 22.4728 70.5212 21.3905C70.1236 20.9654 69.6752 20.5644 69.1911 20.1696ZM72.1759 11.9789V7.81493C72.1759 7.08988 72.0522 6.62847 71.8407 6.35298C71.6523 6.10763 71.3273 5.92608 70.6835 5.92608C69.9557 5.92608 69.6468 6.11557 69.4825 6.34213C69.2873 6.61127 69.1911 7.06599 69.1911 7.81493C69.1911 8.90879 69.7896 9.85355 70.8277 10.8388C71.2326 11.2231 71.6867 11.5981 72.1759 11.9789ZM0 0.621595H18.9449V6.27141H13.7004V32.3784H5.22713V6.27141H0V0.621595ZM0.996097 1.60945V5.28356H6.22323V31.3905H12.7043V5.28356H17.9488V1.60945H0.996097ZM81.0551 0.621595H100V6.27141H94.7729V32.3784H86.2996V6.27141H81.0551V0.621595ZM82.0512 1.60945V5.28356H87.2957V31.3905H93.7768V5.28356H99.0039V1.60945H82.0512ZM44.5031 0.656128H55.4275L60.5008 32.4302H52.517L51.617 24.8675H48.331L47.4309 32.4129H39.4475L44.5031 0.656128ZM45.3542 1.64398L40.6132 31.4251H46.5457L47.4458 23.8796H52.5024L53.4025 31.4423H59.3346L54.5767 1.64398H45.3542ZM27.2985 5.90129C27.7026 5.29793 28.3661 4.93823 29.2992 4.93823C30.2364 4.93823 30.9024 5.29028 31.3067 5.89528C31.6859 6.46268 31.7877 7.18445 31.7877 7.84947V25.1333C31.7877 25.7937 31.6802 26.5137 31.2999 27.0814C30.8957 27.6848 30.2323 28.0445 29.2992 28.0445C28.362 28.0445 27.696 27.6925 27.2917 27.0875C26.9125 26.5201 26.8107 25.7983 26.8107 25.1333V7.84947C26.8107 7.18899 26.9181 6.46902 27.2985 5.90129ZM28.1281 6.44794C27.907 6.77807 27.8068 7.26676 27.8068 7.84947V25.1333C27.8068 25.7287 27.904 26.2156 28.122 26.5417C28.3148 26.8303 28.644 27.0566 29.2992 27.0566C29.9411 27.0566 30.2729 26.8293 30.4702 26.5348C30.6914 26.2047 30.7916 25.716 30.7916 25.1333V7.84947C30.7916 7.25403 30.6944 6.76714 30.4764 6.44101C30.2836 6.15246 29.9543 5.92608 29.2992 5.92608C28.6573 5.92608 28.3254 6.15344 28.1281 6.44794ZM49.4242 5.49076H50.5244L51.8604 20.1882H48.0697L49.4242 5.49076ZM49.9713 10.4083L49.161 19.2004H50.7705L49.9713 10.4083Z" fill="black"/>
</svg>