<svg xmlns="http://www.w3.org/2000/svg" width="156" height="52" viewBox="0 0 156 52">
    <g fill="#435765" fill-rule="nonzero">
        <path d="M28.291 48.7a4.235 4.235 0 0 1-.108-8.468 7.147 7.147 0 0 1 3.425.868l.636-1.256a9.407 9.407 0 0 0-4.017-.914 5.589 5.589 0 0 0-5.71 5.551A5.512 5.512 0 0 0 28.309 50a8.228 8.228 0 0 0 4.013-.947l-.462-1.27a7.609 7.609 0 0 1-3.569.917zM125.071 44.211a2.681 2.681 0 0 0 1.229-2.3 3.046 3.046 0 1 0-6.092.08c0 .91.466 1.759 1.234 2.248a2.95 2.95 0 0 0-1.426 2.611 3.25 3.25 0 0 0 6.5-.063 2.932 2.932 0 0 0-1.445-2.576zm-1.829-4.011a1.652 1.652 0 0 1 1.63 1.68 1.63 1.63 0 0 1-1.6 1.756 1.721 1.721 0 0 1-.033-3.436h.003zm.047 8.527a1.847 1.847 0 0 1-1.847-1.864 1.881 1.881 0 0 1 1.8-1.955 1.8 1.8 0 0 1 1.829 1.835 1.828 1.828 0 0 1-1.782 1.983v.001zM115.339 44.211a2.7 2.7 0 0 0 1.224-2.3 3.047 3.047 0 0 0-6.093.08c.001.912.47 1.76 1.24 2.248a2.942 2.942 0 0 0-1.427 2.611 3.25 3.25 0 0 0 6.5-.063 2.93 2.93 0 0 0-1.444-2.576zM113.51 40.2a1.653 1.653 0 0 1 1.626 1.68 1.629 1.629 0 0 1-1.595 1.756 1.721 1.721 0 0 1-.031-3.436zm.043 8.527a1.845 1.845 0 0 1-1.843-1.864 1.88 1.88 0 0 1 1.8-1.955 1.793 1.793 0 0 1 1.829 1.835 1.83 1.83 0 0 1-1.786 1.983v.001zM133.234 43.752a2.988 2.988 0 0 0-1.77.528 8.613 8.613 0 0 1 2.994-4.746l-.835-1.008a10.532 10.532 0 0 0-3.878 7.584c0 2.37 1.35 3.89 3.455 3.89a3.073 3.073 0 0 0 3.242-3.117 3.109 3.109 0 0 0-3.208-3.131zM135 46.931a1.764 1.764 0 0 1-1.843 1.768c-1.134 0-2.019-.9-2.019-2.45l.032-.4a2.818 2.818 0 0 1 1.967-.808 1.866 1.866 0 0 1 1.879 1.892l-.016-.002zM67.709 41.892a1.715 1.715 0 0 1 1.831-1.661 4.388 4.388 0 0 1 2.14.743l.557-1.222a5.369 5.369 0 0 0-2.777-.823 3.129 3.129 0 0 0-3.268 2.99c0 3.632 5.209 2.252 5.209 4.932 0 1.2-.885 1.848-2.169 1.848a4.822 4.822 0 0 1-2.441-1.086l-.539 1.287A5.652 5.652 0 0 0 69.4 50c1.942 0 3.541-1.113 3.541-3.271-.005-3.659-5.232-2.372-5.232-4.837zM49.694 48.641V45.07h4.294v-1.222h-4.294v-3.522h4.384l.546-1.223h-6.392v10.762H54.7l-.417-1.224zM59.31 48.641v-9.539h-1.46v10.763h6.656l-.542-1.224zM77.867 48.641V45.07h4.294v-1.222h-4.294v-3.522h4.387l.542-1.223h-6.388v10.762h6.466l-.42-1.224zM42.764 43.828h-5.722v-4.953l-1.455.499v10.491h1.455v-4.793h5.722v4.793h1.46v-10.99l-1.46.499zM104.988 49.877h1.42V38.89l-1.42.496zM89.7 39.245l-4.9 10.62h1.556l1.357-2.982h5l1.365 2.982h1.58l-5.134-10.991-.824.371zm-1.417 6.394l1.929-4.226 1.933 4.226h-3.862zM60.824 11.471c1.846-.173 6.08.082 8.106-4.676a126.089 126.089 0 0 0 1.5-3.7s-5.192.406-7.919 2.332c-2.727 1.926-4.673 7.157-4.673 7.157a4.655 4.655 0 0 1 2.986-1.113zm6.955-6.589l.678.118a38.715 38.715 0 0 0-7.9 5.182c1.595-3.314 4.098-5.152 7.222-5.3zM132.172 17.848c.369.521.749 1.059 1.124 1.059.551 0 1.043-1.1 1.643-3.665l.012-.055-.04-.04a3.259 3.259 0 0 0-2.165-.89c-1.719 0-3.4 1.215-5 3.611l-.424.639-.024-.766c-.076-2.508-.7-3.484-2.211-3.484-2.154 0-3.851 1.431-5.341 4.5a.919.919 0 0 0-.125.665c.033.1.125.17.306.237l.036.006c.2 0 .417-.266.616-.554.852-1.274 1.536-1.817 2.285-1.817a.893.893 0 0 1 .707.3c.374.427.438 1.276.219 2.934l-1.5 11.078-.016.115h3.972l.914-6.745c.7-5.181 2.04-8.4 3.492-8.4.628.001 1.08.645 1.52 1.272zM57.206 26.78c-.249-.005-.46.281-.642.549-.858 1.274-1.543 1.818-2.29 1.818a.9.9 0 0 1-.708-.3c-.374-.427-.438-1.276-.221-2.929l.6-4.512c.4-2.926.113-4.895-.869-6.021a3.611 3.611 0 0 0-2.9-1.111 6.342 6.342 0 0 0-2.717.625c-.2.084-.393.185-.577.3l-.105.072a8.968 8.968 0 0 0-1.827 1.478 20.442 20.442 0 0 0-1.531 1.666L43.1 18.3l2.162-16.164L45.28 2l-.233.036c-3.29.562-6.623.835-9.96.817-1.022 0-2.112-.017-3.331-.051l-.1.676c1.106.172 2.028.743 2.623 1.598.304.671.3 1.44-.01 2.109L27.936 23.8 24.121 6.826C23.679 4.78 25.386 4 27.113 3.5l.074-.7a98.361 98.361 0 0 1-10.751.006l-.108.653c1.065.233 1.927.83 2.472 1.681.362.622.413 1.377.138 2.042L12.607 23.8 8.793 6.826C8.356 4.78 10.059 4 11.785 3.5l.073-.7c-2.059.101-3.824.148-5.502.148S3 2.906 1.108 2.81L1 3.469c2.464.665 2.763 1.936 3.305 4.246l5.621 23.931 1.074.079 8.93-22.718 5.322 22.639 1.072.079L35.78 7.69c.986-2.65 2.012-3.884 3.225-3.884.46.002.897.204 1.195.554.5.793.657 1.755.433 2.666l-3.3 24.583-.016.116h4l.946-7.115c.811-6.142 4-7.782 5.761-7.782a1.863 1.863 0 0 1 1.47.595c.578.66.735 1.836.492 3.7l-.733 5.525a15.3 15.3 0 0 0-.152 2.1c0 2.246.831 3.432 2.4 3.432 2.356 0 4.51-1.639 5.906-4.5a1 1 0 0 0 .124-.671c-.044-.093-.131-.161-.325-.229zM60.768 28.75c.005 2.246.834 3.432 2.4 3.432 2.36 0 4.518-1.639 5.916-4.5a.957.957 0 0 0 .12-.672c-.03-.071-.088-.149-.313-.232l-.036-.006c-.209 0-.422.279-.606.555-.874 1.289-1.535 1.815-2.288 1.815a.9.9 0 0 1-.71-.3c-.374-.428-.438-1.276-.219-2.927L66.6 14.238l.018-.143-.139.029c-2.26.425-4.545.7-6.841.824h-.086l-.071.555.091.02c1.843.408 2.62 1.573 2.373 3.562l-1.02 7.565c-.1.696-.152 1.397-.157 2.1zM93.372 7.342l.016-.116h-.817l-.027.06a16.375 16.375 0 0 1-6.911 8.071l-.043.025-.1.749h2.687l-1.4 10.519c-.291 2.106-.026 3.7.767 4.611.588.633 1.43.97 2.292.919 1.871 0 4.628-1.326 6.239-5.064.13-.22.17-.482.108-.73l-.281-.22h-.034c-.2 0-.406.268-.621.552-.616.793-1.819 2.122-2.948 2.122a1.254 1.254 0 0 1-.972-.437 3.11 3.11 0 0 1-.419-2.48l1.3-9.787h4.9l.219-1.625h-4.915l.96-7.169zM79.44 7.342l.016-.116h-.818l-.028.06a16.349 16.349 0 0 1-6.918 8.071l-.044.025-.1.749h2.693l-1.4 10.519c-.293 2.106-.03 3.7.759 4.608a2.9 2.9 0 0 0 2.3.922c1.866 0 4.619-1.327 6.232-5.067.134-.22.178-.482.124-.734l-.012-.031-.289-.187h-.03c-.2 0-.4.269-.617.553-1.056 1.347-2.13 2.121-2.95 2.121a1.258 1.258 0 0 1-.974-.439 3.1 3.1 0 0 1-.417-2.478l1.3-9.787h4.91l.221-1.625h-4.92l.962-7.164zM118.693 26.818l-.072-.036-.034-.006c-.207 0-.42.282-.61.551-.844 1.275-1.528 1.82-2.285 1.82a.912.912 0 0 1-.719-.3c-.368-.42-.43-1.258-.213-2.888l1.582-11.575.072-.528.016-.115h-.977l-.027.059a2.417 2.417 0 0 1-2.1 1.591 3.882 3.882 0 0 1-1.53-.428 6.9 6.9 0 0 0-2.99-.687c-6.767 0-9.389 6.4-9.834 10.435a11.2 11.2 0 0 0-.078 1.211c0 2.706.965 4.367 2.235 5.3a4.98 4.98 0 0 0 2.934.963c2.261 0 4.391-1.38 6-3.886l.492-.766-.04.909a4.23 4.23 0 0 0 .809 3.12c.422.424 1.003.65 1.6.623a6.243 6.243 0 0 0 5.038-3.047c.324-.461.612-.947.862-1.452.124-.2.17-.44.125-.671l-.256-.197zm-7.325-7.245l-.474 3.478c-.553 4.07-2.286 6.4-4.755 6.4-1.285 0-2.719-1.268-2.828-4.051-.122-3.539.943-6.92 2.781-8.823a3.935 3.935 0 0 1 2.778-1.373c.684-.03 1.346.25 1.8.763.73 1.05.983 2.36.698 3.606zM154.981 27.027v-.014c-.033-.082-.1-.153-.318-.231l-.034-.006c-.211 0-.42.282-.6.553-.86 1.274-1.544 1.818-2.291 1.818a.9.9 0 0 1-.717-.3c-.37-.425-.43-1.262-.205-2.888l1.78-13.066 1.461-10.724.018-.142-.139.029a52.605 52.605 0 0 1-6.815.825h-.086l-.071.55.091.02c1.863.416 2.638 1.585 2.371 3.576l-.486 3.547-.584 4.255-.151.293-.335-.145a6.943 6.943 0 0 0-3.02-.7c-4.6 0-7.289 2.959-8.68 6.123a14.464 14.464 0 0 0-1.242 5.523c0 4.621 2.787 6.261 5.175 6.261.456-.006.91-.068 1.35-.184a8.022 8.022 0 0 0 4.647-3.7l.492-.765-.04.908a4.223 4.223 0 0 0 .807 3.124 2.1 2.1 0 0 0 1.588.619 5.213 5.213 0 0 0 2.45-.629 8.375 8.375 0 0 0 3.458-3.872.959.959 0 0 0 .126-.658zm-7.566-7.454l-.473 3.478c-.558 4.07-2.293 6.4-4.76 6.4-1.285 0-2.717-1.268-2.823-4.049-.132-3.532.929-6.91 2.765-8.818a3.949 3.949 0 0 1 2.785-1.38 2.261 2.261 0 0 1 1.8.761c.73 1.05.987 2.36.706 3.608z"/>
    </g>
</svg>
